<svg xmlns="http://www.w3.org/2000/svg" xmlns:xlink="http://www.w3.org/1999/xlink" width="500" zoomAndPan="magnify" viewBox="0 0 375 374.999991" height="500" preserveAspectRatio="xMidYMid meet" version="1.0"><defs><g/><clipPath id="e11f462f52"><path d="M 108 126 L 139.402344 126 L 139.402344 146 L 108 146 Z M 108 126 " clip-rule="nonzero"/></clipPath><clipPath id="7fec5e786d"><path d="M 46.402344 154.203125 L 46.402344 154.738281 C 46.402344 178.761719 65.878906 198.238281 89.902344 198.238281 L 95.898438 198.238281 C 119.921875 198.238281 139.398438 178.761719 139.398438 154.738281 L 139.398438 154.203125 C 139.398438 130.179688 119.921875 110.703125 95.898438 110.703125 L 89.902344 110.703125 C 65.878906 110.703125 46.402344 130.179688 46.402344 154.203125 Z M 46.402344 154.203125 " clip-rule="nonzero"/></clipPath><clipPath id="e84cfe25f7"><path d="M 97 110.703125 L 112 110.703125 L 112 136 L 97 136 Z M 97 110.703125 " clip-rule="nonzero"/></clipPath><clipPath id="c28780f56d"><path d="M 46.402344 154.203125 L 46.402344 154.738281 C 46.402344 178.761719 65.878906 198.238281 89.902344 198.238281 L 95.898438 198.238281 C 119.921875 198.238281 139.398438 178.761719 139.398438 154.738281 L 139.398438 154.203125 C 139.398438 130.179688 119.921875 110.703125 95.898438 110.703125 L 89.902344 110.703125 C 65.878906 110.703125 46.402344 130.179688 46.402344 154.203125 Z M 46.402344 154.203125 " clip-rule="nonzero"/></clipPath><clipPath id="715fe7f14f"><path d="M 115 118 L 122 118 L 122 125 L 115 125 Z M 115 118 " clip-rule="nonzero"/></clipPath><clipPath id="044ce80317"><path d="M 46.402344 154.203125 L 46.402344 154.738281 C 46.402344 178.761719 65.878906 198.238281 89.902344 198.238281 L 95.898438 198.238281 C 119.921875 198.238281 139.398438 178.761719 139.398438 154.738281 L 139.398438 154.203125 C 139.398438 130.179688 119.921875 110.703125 95.898438 110.703125 L 89.902344 110.703125 C 65.878906 110.703125 46.402344 130.179688 46.402344 154.203125 Z M 46.402344 154.203125 " clip-rule="nonzero"/></clipPath><clipPath id="24b26a5cb1"><path d="M 88 128 L 97 128 L 97 139 L 88 139 Z M 88 128 " clip-rule="nonzero"/></clipPath><clipPath id="8b309c88b8"><path d="M 46.402344 154.203125 L 46.402344 154.738281 C 46.402344 178.761719 65.878906 198.238281 89.902344 198.238281 L 95.898438 198.238281 C 119.921875 198.238281 139.398438 178.761719 139.398438 154.738281 L 139.398438 154.203125 C 139.398438 130.179688 119.921875 110.703125 95.898438 110.703125 L 89.902344 110.703125 C 65.878906 110.703125 46.402344 130.179688 46.402344 154.203125 Z M 46.402344 154.203125 " clip-rule="nonzero"/></clipPath><clipPath id="e75ba10950"><path d="M 96 139 L 105 139 L 105 148 L 96 148 Z M 96 139 " clip-rule="nonzero"/></clipPath><clipPath id="011cbeb649"><path d="M 46.402344 154.203125 L 46.402344 154.738281 C 46.402344 178.761719 65.878906 198.238281 89.902344 198.238281 L 95.898438 198.238281 C 119.921875 198.238281 139.398438 178.761719 139.398438 154.738281 L 139.398438 154.203125 C 139.398438 130.179688 119.921875 110.703125 95.898438 110.703125 L 89.902344 110.703125 C 65.878906 110.703125 46.402344 130.179688 46.402344 154.203125 Z M 46.402344 154.203125 " clip-rule="nonzero"/></clipPath><clipPath id="9d3955fd60"><path d="M 128 145 L 132 145 L 132 164 L 128 164 Z M 128 145 " clip-rule="nonzero"/></clipPath><clipPath id="eca3206cd8"><path d="M 46.402344 154.203125 L 46.402344 154.738281 C 46.402344 178.761719 65.878906 198.238281 89.902344 198.238281 L 95.898438 198.238281 C 119.921875 198.238281 139.398438 178.761719 139.398438 154.738281 L 139.398438 154.203125 C 139.398438 130.179688 119.921875 110.703125 95.898438 110.703125 L 89.902344 110.703125 C 65.878906 110.703125 46.402344 130.179688 46.402344 154.203125 Z M 46.402344 154.203125 " clip-rule="nonzero"/></clipPath><clipPath id="b0b0acf7a0"><path d="M 50 112 L 99 112 L 99 144 L 50 144 Z M 50 112 " clip-rule="nonzero"/></clipPath><clipPath id="00cbfec5e1"><path d="M 46.402344 154.203125 L 46.402344 154.738281 C 46.402344 178.761719 65.878906 198.238281 89.902344 198.238281 L 95.898438 198.238281 C 119.921875 198.238281 139.398438 178.761719 139.398438 154.738281 L 139.398438 154.203125 C 139.398438 130.179688 119.921875 110.703125 95.898438 110.703125 L 89.902344 110.703125 C 65.878906 110.703125 46.402344 130.179688 46.402344 154.203125 Z M 46.402344 154.203125 " clip-rule="nonzero"/></clipPath><clipPath id="a709f40074"><path d="M 46.402344 140 L 132 140 L 132 198.453125 L 46.402344 198.453125 Z M 46.402344 140 " clip-rule="nonzero"/></clipPath><clipPath id="57bd4a416d"><path d="M 46.402344 154.203125 L 46.402344 154.738281 C 46.402344 178.761719 65.878906 198.238281 89.902344 198.238281 L 95.898438 198.238281 C 119.921875 198.238281 139.398438 178.761719 139.398438 154.738281 L 139.398438 154.203125 C 139.398438 130.179688 119.921875 110.703125 95.898438 110.703125 L 89.902344 110.703125 C 65.878906 110.703125 46.402344 130.179688 46.402344 154.203125 Z M 46.402344 154.203125 " clip-rule="nonzero"/></clipPath><clipPath id="9e8582ec9f"><path d="M 93 155 L 108 155 L 108 162 L 93 162 Z M 93 155 " clip-rule="nonzero"/></clipPath><clipPath id="ff50ae1587"><path d="M 92.734375 157.0625 L 107.042969 154.308594 L 108.207031 160.34375 L 93.898438 163.101562 Z M 92.734375 157.0625 " clip-rule="nonzero"/></clipPath><clipPath id="1e8d09601f"><path d="M 107.429688 156.351562 C 107.609375 158.578125 105.628906 160.117188 104.246094 160.804688 C 103.199219 161.265625 102.121094 161.578125 100.761719 161.738281 C 99.027344 161.914062 95.957031 161.714844 94.753906 161.371094 C 93.824219 161.128906 93.371094 160.742188 93.386719 160.160156 C 93.371094 159.429688 94.210938 157.898438 95.699219 157.089844 C 97.175781 156.226562 100.566406 155.46875 102.300781 155.289062 C 103.527344 155.105469 105.359375 155.4375 105.359375 155.4375 " clip-rule="nonzero"/></clipPath></defs><rect x="-37.5" width="450" fill="#ffffff" y="-37.499999" height="449.999989" fill-opacity="1"/><rect x="-37.5" width="450" fill="#ffffff" y="-37.499999" height="449.999989" fill-opacity="1"/><g fill="#80cc28" fill-opacity="1"><g transform="translate(144.785203, 144.130954)"><g><path d="M 11.390625 -13.984375 C 11.273438 -13.796875 11.148438 -13.648438 11.015625 -13.546875 C 10.878906 -13.453125 10.707031 -13.40625 10.5 -13.40625 C 10.320312 -13.40625 10.125 -13.460938 9.90625 -13.578125 C 9.695312 -13.691406 9.457031 -13.820312 9.1875 -13.96875 C 8.914062 -14.113281 8.609375 -14.242188 8.265625 -14.359375 C 7.921875 -14.484375 7.523438 -14.546875 7.078125 -14.546875 C 6.316406 -14.546875 5.75 -14.378906 5.375 -14.046875 C 5 -13.722656 4.8125 -13.285156 4.8125 -12.734375 C 4.8125 -12.378906 4.925781 -12.082031 5.15625 -11.84375 C 5.382812 -11.613281 5.679688 -11.414062 6.046875 -11.25 C 6.410156 -11.082031 6.828125 -10.925781 7.296875 -10.78125 C 7.765625 -10.644531 8.242188 -10.488281 8.734375 -10.3125 C 9.222656 -10.144531 9.703125 -9.941406 10.171875 -9.703125 C 10.640625 -9.472656 11.054688 -9.175781 11.421875 -8.8125 C 11.785156 -8.457031 12.082031 -8.019531 12.3125 -7.5 C 12.539062 -6.976562 12.65625 -6.351562 12.65625 -5.625 C 12.65625 -4.8125 12.515625 -4.050781 12.234375 -3.34375 C 11.953125 -2.632812 11.539062 -2.015625 11 -1.484375 C 10.46875 -0.960938 9.8125 -0.550781 9.03125 -0.25 C 8.25 0.0390625 7.359375 0.1875 6.359375 0.1875 C 5.816406 0.1875 5.257812 0.128906 4.6875 0.015625 C 4.125 -0.0859375 3.578125 -0.242188 3.046875 -0.453125 C 2.515625 -0.660156 2.015625 -0.90625 1.546875 -1.1875 C 1.085938 -1.46875 0.6875 -1.78125 0.34375 -2.125 L 1.546875 -4.03125 C 1.640625 -4.164062 1.765625 -4.273438 1.921875 -4.359375 C 2.078125 -4.453125 2.25 -4.5 2.4375 -4.5 C 2.675781 -4.5 2.914062 -4.421875 3.15625 -4.265625 C 3.40625 -4.117188 3.679688 -3.953125 3.984375 -3.765625 C 4.296875 -3.585938 4.648438 -3.421875 5.046875 -3.265625 C 5.453125 -3.109375 5.929688 -3.03125 6.484375 -3.03125 C 7.222656 -3.03125 7.796875 -3.191406 8.203125 -3.515625 C 8.609375 -3.847656 8.8125 -4.367188 8.8125 -5.078125 C 8.8125 -5.484375 8.695312 -5.8125 8.46875 -6.0625 C 8.25 -6.320312 7.957031 -6.535156 7.59375 -6.703125 C 7.226562 -6.878906 6.8125 -7.03125 6.34375 -7.15625 C 5.882812 -7.28125 5.410156 -7.421875 4.921875 -7.578125 C 4.429688 -7.734375 3.953125 -7.925781 3.484375 -8.15625 C 3.015625 -8.382812 2.597656 -8.6875 2.234375 -9.0625 C 1.867188 -9.4375 1.570312 -9.898438 1.34375 -10.453125 C 1.125 -11.015625 1.015625 -11.707031 1.015625 -12.53125 C 1.015625 -13.1875 1.144531 -13.828125 1.40625 -14.453125 C 1.675781 -15.078125 2.066406 -15.632812 2.578125 -16.125 C 3.085938 -16.613281 3.71875 -17.003906 4.46875 -17.296875 C 5.21875 -17.597656 6.070312 -17.75 7.03125 -17.75 C 7.570312 -17.75 8.097656 -17.703125 8.609375 -17.609375 C 9.117188 -17.523438 9.601562 -17.398438 10.0625 -17.234375 C 10.519531 -17.078125 10.945312 -16.882812 11.34375 -16.65625 C 11.738281 -16.425781 12.09375 -16.164062 12.40625 -15.875 Z M 11.390625 -13.984375 "/></g></g></g><g fill="#80cc28" fill-opacity="1"><g transform="translate(160.639515, 144.130954)"><g><path d="M 5.796875 -14.421875 L 5.796875 -10.328125 L 11.3125 -10.328125 L 11.3125 -7.3125 L 5.796875 -7.3125 L 5.796875 -3.125 L 13 -3.125 L 13 0 L 1.703125 0 L 1.703125 -17.546875 L 13 -17.546875 L 13 -14.421875 Z M 5.796875 -14.421875 "/></g></g></g><g fill="#80cc28" fill-opacity="1"><g transform="translate(176.951613, 144.130954)"><g><path d="M 10.96875 -6.703125 L 9.34375 -11.515625 C 9.226562 -11.816406 9.101562 -12.175781 8.96875 -12.59375 C 8.832031 -13.007812 8.691406 -13.457031 8.546875 -13.9375 C 8.429688 -13.445312 8.304688 -12.992188 8.171875 -12.578125 C 8.035156 -12.160156 7.90625 -11.800781 7.78125 -11.5 L 6.171875 -6.703125 Z M 17.4375 0 L 14.28125 0 C 13.925781 0 13.640625 -0.0820312 13.421875 -0.25 C 13.210938 -0.414062 13.050781 -0.625 12.9375 -0.875 L 11.90625 -3.9375 L 5.234375 -3.9375 L 4.1875 -0.875 C 4.101562 -0.65625 3.945312 -0.453125 3.71875 -0.265625 C 3.488281 -0.0859375 3.203125 0 2.859375 0 L -0.3125 0 L 6.484375 -17.546875 L 10.65625 -17.546875 Z M 17.4375 0 "/></g></g></g><g fill="#80cc28" fill-opacity="1"><g transform="translate(196.588644, 144.130954)"><g><path d="M 11.390625 -13.984375 C 11.273438 -13.796875 11.148438 -13.648438 11.015625 -13.546875 C 10.878906 -13.453125 10.707031 -13.40625 10.5 -13.40625 C 10.320312 -13.40625 10.125 -13.460938 9.90625 -13.578125 C 9.695312 -13.691406 9.457031 -13.820312 9.1875 -13.96875 C 8.914062 -14.113281 8.609375 -14.242188 8.265625 -14.359375 C 7.921875 -14.484375 7.523438 -14.546875 7.078125 -14.546875 C 6.316406 -14.546875 5.75 -14.378906 5.375 -14.046875 C 5 -13.722656 4.8125 -13.285156 4.8125 -12.734375 C 4.8125 -12.378906 4.925781 -12.082031 5.15625 -11.84375 C 5.382812 -11.613281 5.679688 -11.414062 6.046875 -11.25 C 6.410156 -11.082031 6.828125 -10.925781 7.296875 -10.78125 C 7.765625 -10.644531 8.242188 -10.488281 8.734375 -10.3125 C 9.222656 -10.144531 9.703125 -9.941406 10.171875 -9.703125 C 10.640625 -9.472656 11.054688 -9.175781 11.421875 -8.8125 C 11.785156 -8.457031 12.082031 -8.019531 12.3125 -7.5 C 12.539062 -6.976562 12.65625 -6.351562 12.65625 -5.625 C 12.65625 -4.8125 12.515625 -4.050781 12.234375 -3.34375 C 11.953125 -2.632812 11.539062 -2.015625 11 -1.484375 C 10.46875 -0.960938 9.8125 -0.550781 9.03125 -0.25 C 8.25 0.0390625 7.359375 0.1875 6.359375 0.1875 C 5.816406 0.1875 5.257812 0.128906 4.6875 0.015625 C 4.125 -0.0859375 3.578125 -0.242188 3.046875 -0.453125 C 2.515625 -0.660156 2.015625 -0.90625 1.546875 -1.1875 C 1.085938 -1.46875 0.6875 -1.78125 0.34375 -2.125 L 1.546875 -4.03125 C 1.640625 -4.164062 1.765625 -4.273438 1.921875 -4.359375 C 2.078125 -4.453125 2.25 -4.5 2.4375 -4.5 C 2.675781 -4.5 2.914062 -4.421875 3.15625 -4.265625 C 3.40625 -4.117188 3.679688 -3.953125 3.984375 -3.765625 C 4.296875 -3.585938 4.648438 -3.421875 5.046875 -3.265625 C 5.453125 -3.109375 5.929688 -3.03125 6.484375 -3.03125 C 7.222656 -3.03125 7.796875 -3.191406 8.203125 -3.515625 C 8.609375 -3.847656 8.8125 -4.367188 8.8125 -5.078125 C 8.8125 -5.484375 8.695312 -5.8125 8.46875 -6.0625 C 8.25 -6.320312 7.957031 -6.535156 7.59375 -6.703125 C 7.226562 -6.878906 6.8125 -7.03125 6.34375 -7.15625 C 5.882812 -7.28125 5.410156 -7.421875 4.921875 -7.578125 C 4.429688 -7.734375 3.953125 -7.925781 3.484375 -8.15625 C 3.015625 -8.382812 2.597656 -8.6875 2.234375 -9.0625 C 1.867188 -9.4375 1.570312 -9.898438 1.34375 -10.453125 C 1.125 -11.015625 1.015625 -11.707031 1.015625 -12.53125 C 1.015625 -13.1875 1.144531 -13.828125 1.40625 -14.453125 C 1.675781 -15.078125 2.066406 -15.632812 2.578125 -16.125 C 3.085938 -16.613281 3.71875 -17.003906 4.46875 -17.296875 C 5.21875 -17.597656 6.070312 -17.75 7.03125 -17.75 C 7.570312 -17.75 8.097656 -17.703125 8.609375 -17.609375 C 9.117188 -17.523438 9.601562 -17.398438 10.0625 -17.234375 C 10.519531 -17.078125 10.945312 -16.882812 11.34375 -16.65625 C 11.738281 -16.425781 12.09375 -16.164062 12.40625 -15.875 Z M 11.390625 -13.984375 "/></g></g></g><g fill="#80cc28" fill-opacity="1"><g transform="translate(212.442956, 144.130954)"><g><path d="M 5.796875 0 L 1.703125 0 L 1.703125 -17.546875 L 5.796875 -17.546875 Z M 5.796875 0 "/></g></g></g><g fill="#80cc28" fill-opacity="1"><g transform="translate(222.442493, 144.130954)"><g><path d="M 17.625 -8.78125 C 17.625 -7.507812 17.40625 -6.335938 16.96875 -5.265625 C 16.53125 -4.191406 15.910156 -3.265625 15.109375 -2.484375 C 14.316406 -1.703125 13.359375 -1.09375 12.234375 -0.65625 C 11.117188 -0.21875 9.878906 0 8.515625 0 L 1.703125 0 L 1.703125 -17.546875 L 8.515625 -17.546875 C 9.878906 -17.546875 11.117188 -17.328125 12.234375 -16.890625 C 13.359375 -16.453125 14.316406 -15.84375 15.109375 -15.0625 C 15.910156 -14.28125 16.53125 -13.351562 16.96875 -12.28125 C 17.40625 -11.207031 17.625 -10.039062 17.625 -8.78125 Z M 13.453125 -8.78125 C 13.453125 -9.644531 13.335938 -10.425781 13.109375 -11.125 C 12.890625 -11.820312 12.566406 -12.414062 12.140625 -12.90625 C 11.722656 -13.394531 11.207031 -13.769531 10.59375 -14.03125 C 9.988281 -14.289062 9.296875 -14.421875 8.515625 -14.421875 L 5.796875 -14.421875 L 5.796875 -3.125 L 8.515625 -3.125 C 9.296875 -3.125 9.988281 -3.253906 10.59375 -3.515625 C 11.207031 -3.785156 11.722656 -4.160156 12.140625 -4.640625 C 12.566406 -5.128906 12.890625 -5.722656 13.109375 -6.421875 C 13.335938 -7.117188 13.453125 -7.90625 13.453125 -8.78125 Z M 13.453125 -8.78125 "/></g></g></g><g fill="#80cc28" fill-opacity="1"><g transform="translate(243.28422, 144.130954)"><g><path d="M 5.796875 -14.421875 L 5.796875 -10.328125 L 11.3125 -10.328125 L 11.3125 -7.3125 L 5.796875 -7.3125 L 5.796875 -3.125 L 13 -3.125 L 13 0 L 1.703125 0 L 1.703125 -17.546875 L 13 -17.546875 L 13 -14.421875 Z M 5.796875 -14.421875 "/></g></g></g><g fill="#80cc28" fill-opacity="1"><g transform="translate(259.596319, 144.130954)"><g/></g></g><g fill="#80cc28" fill-opacity="1"><g transform="translate(267.668351, 144.130954)"><g><path d="M 13.53125 -4.546875 C 13.625 -4.546875 13.71875 -4.523438 13.8125 -4.484375 C 13.914062 -4.453125 14.007812 -4.390625 14.09375 -4.296875 L 15.703125 -2.609375 C 15.003906 -1.679688 14.117188 -0.984375 13.046875 -0.515625 C 11.984375 -0.046875 10.726562 0.1875 9.28125 0.1875 C 7.945312 0.1875 6.75 -0.0351562 5.6875 -0.484375 C 4.632812 -0.941406 3.738281 -1.566406 3 -2.359375 C 2.269531 -3.160156 1.707031 -4.109375 1.3125 -5.203125 C 0.914062 -6.304688 0.71875 -7.5 0.71875 -8.78125 C 0.71875 -10.09375 0.929688 -11.296875 1.359375 -12.390625 C 1.785156 -13.484375 2.382812 -14.425781 3.15625 -15.21875 C 3.925781 -16.019531 4.847656 -16.640625 5.921875 -17.078125 C 7.003906 -17.523438 8.191406 -17.75 9.484375 -17.75 C 10.140625 -17.75 10.757812 -17.6875 11.34375 -17.5625 C 11.925781 -17.445312 12.46875 -17.285156 12.96875 -17.078125 C 13.476562 -16.878906 13.945312 -16.632812 14.375 -16.34375 C 14.800781 -16.050781 15.175781 -15.738281 15.5 -15.40625 L 14.125 -13.5625 C 14.039062 -13.445312 13.9375 -13.34375 13.8125 -13.25 C 13.695312 -13.164062 13.53125 -13.125 13.3125 -13.125 C 13.164062 -13.125 13.023438 -13.15625 12.890625 -13.21875 C 12.765625 -13.28125 12.628906 -13.359375 12.484375 -13.453125 C 12.347656 -13.546875 12.191406 -13.644531 12.015625 -13.75 C 11.835938 -13.863281 11.628906 -13.960938 11.390625 -14.046875 C 11.160156 -14.140625 10.882812 -14.21875 10.5625 -14.28125 C 10.25 -14.351562 9.878906 -14.390625 9.453125 -14.390625 C 8.773438 -14.390625 8.15625 -14.265625 7.59375 -14.015625 C 7.039062 -13.765625 6.5625 -13.398438 6.15625 -12.921875 C 5.75 -12.441406 5.4375 -11.851562 5.21875 -11.15625 C 5 -10.46875 4.890625 -9.675781 4.890625 -8.78125 C 4.890625 -7.882812 5.007812 -7.085938 5.25 -6.390625 C 5.5 -5.691406 5.832031 -5.101562 6.25 -4.625 C 6.675781 -4.144531 7.171875 -3.78125 7.734375 -3.53125 C 8.296875 -3.28125 8.898438 -3.15625 9.546875 -3.15625 C 9.910156 -3.15625 10.242188 -3.171875 10.546875 -3.203125 C 10.859375 -3.242188 11.144531 -3.304688 11.40625 -3.390625 C 11.675781 -3.472656 11.925781 -3.582031 12.15625 -3.71875 C 12.382812 -3.863281 12.617188 -4.046875 12.859375 -4.265625 C 12.960938 -4.347656 13.066406 -4.414062 13.171875 -4.46875 C 13.285156 -4.519531 13.40625 -4.546875 13.53125 -4.546875 Z M 13.53125 -4.546875 "/></g></g></g><g fill="#80cc28" fill-opacity="1"><g transform="translate(285.968185, 144.130954)"><g><path d="M 10.96875 -6.703125 L 9.34375 -11.515625 C 9.226562 -11.816406 9.101562 -12.175781 8.96875 -12.59375 C 8.832031 -13.007812 8.691406 -13.457031 8.546875 -13.9375 C 8.429688 -13.445312 8.304688 -12.992188 8.171875 -12.578125 C 8.035156 -12.160156 7.90625 -11.800781 7.78125 -11.5 L 6.171875 -6.703125 Z M 17.4375 0 L 14.28125 0 C 13.925781 0 13.640625 -0.0820312 13.421875 -0.25 C 13.210938 -0.414062 13.050781 -0.625 12.9375 -0.875 L 11.90625 -3.9375 L 5.234375 -3.9375 L 4.1875 -0.875 C 4.101562 -0.65625 3.945312 -0.453125 3.71875 -0.265625 C 3.488281 -0.0859375 3.203125 0 2.859375 0 L -0.3125 0 L 6.484375 -17.546875 L 10.65625 -17.546875 Z M 17.4375 0 "/></g></g></g><g fill="#80cc28" fill-opacity="1"><g transform="translate(305.605215, 144.130954)"><g><path d="M 7.40625 -9.296875 C 7.957031 -9.296875 8.425781 -9.363281 8.8125 -9.5 C 9.207031 -9.644531 9.53125 -9.84375 9.78125 -10.09375 C 10.03125 -10.34375 10.210938 -10.632812 10.328125 -10.96875 C 10.441406 -11.300781 10.5 -11.660156 10.5 -12.046875 C 10.5 -12.816406 10.242188 -13.414062 9.734375 -13.84375 C 9.234375 -14.28125 8.457031 -14.5 7.40625 -14.5 L 5.765625 -14.5 L 5.765625 -9.296875 Z M 16.0625 0 L 12.375 0 C 11.6875 0 11.195312 -0.253906 10.90625 -0.765625 L 7.984375 -5.859375 C 7.847656 -6.078125 7.695312 -6.238281 7.53125 -6.34375 C 7.363281 -6.445312 7.125 -6.5 6.8125 -6.5 L 5.765625 -6.5 L 5.765625 0 L 1.703125 0 L 1.703125 -17.546875 L 7.40625 -17.546875 C 8.675781 -17.546875 9.757812 -17.414062 10.65625 -17.15625 C 11.550781 -16.894531 12.28125 -16.53125 12.84375 -16.0625 C 13.414062 -15.601562 13.828125 -15.054688 14.078125 -14.421875 C 14.335938 -13.785156 14.46875 -13.09375 14.46875 -12.34375 C 14.46875 -11.78125 14.390625 -11.242188 14.234375 -10.734375 C 14.085938 -10.222656 13.863281 -9.753906 13.5625 -9.328125 C 13.269531 -8.898438 12.90625 -8.515625 12.46875 -8.171875 C 12.03125 -7.835938 11.523438 -7.5625 10.953125 -7.34375 C 11.210938 -7.207031 11.457031 -7.035156 11.6875 -6.828125 C 11.925781 -6.628906 12.140625 -6.390625 12.328125 -6.109375 Z M 16.0625 0 "/></g></g></g><g fill="#80cc28" fill-opacity="1"><g transform="translate(323.95324, 144.130954)"><g><path d="M 5.796875 -14.421875 L 5.796875 -10.328125 L 11.3125 -10.328125 L 11.3125 -7.3125 L 5.796875 -7.3125 L 5.796875 -3.125 L 13 -3.125 L 13 0 L 1.703125 0 L 1.703125 -17.546875 L 13 -17.546875 L 13 -14.421875 Z M 5.796875 -14.421875 "/></g></g></g><g fill="#2db5a3" fill-opacity="1"><g transform="translate(158.871543, 166.62201)"><g><path d="M 5.734375 -1.640625 C 5.742188 -1.492188 5.710938 -1.359375 5.640625 -1.234375 C 5.578125 -1.109375 5.453125 -1.039062 5.265625 -1.03125 C 5.078125 -1 4.929688 -1.035156 4.828125 -1.140625 C 4.722656 -1.253906 4.65625 -1.390625 4.625 -1.546875 C 4.59375 -1.710938 4.570312 -1.878906 4.5625 -2.046875 C 4.5625 -2.210938 4.550781 -2.375 4.53125 -2.53125 C 4.5 -2.738281 4.472656 -2.945312 4.453125 -3.15625 C 4.429688 -3.363281 4.398438 -3.570312 4.359375 -3.78125 C 4.316406 -3.9375 4.238281 -4.046875 4.125 -4.109375 C 4.019531 -4.171875 3.882812 -4.15625 3.71875 -4.0625 C 3.59375 -3.988281 3.46875 -3.90625 3.34375 -3.8125 C 3.226562 -3.726562 3.125 -3.625 3.03125 -3.5 C 2.726562 -3.101562 2.492188 -2.675781 2.328125 -2.21875 C 2.160156 -1.757812 2.046875 -1.28125 1.984375 -0.78125 C 1.972656 -0.726562 1.960938 -0.671875 1.953125 -0.609375 C 1.953125 -0.554688 1.941406 -0.5 1.921875 -0.4375 C 1.878906 -0.300781 1.8125 -0.1875 1.71875 -0.09375 C 1.625 0 1.492188 0.0390625 1.328125 0.03125 C 1.160156 0.0195312 1.03125 -0.03125 0.9375 -0.125 C 0.84375 -0.226562 0.785156 -0.359375 0.765625 -0.515625 C 0.742188 -0.660156 0.734375 -0.8125 0.734375 -0.96875 C 0.734375 -1.125 0.726562 -1.273438 0.71875 -1.421875 C 0.625 -2.804688 0.566406 -4.1875 0.546875 -5.5625 C 0.535156 -6.945312 0.570312 -8.332031 0.65625 -9.71875 C 0.664062 -9.78125 0.671875 -9.84375 0.671875 -9.90625 C 0.679688 -9.976562 0.703125 -10.039062 0.734375 -10.09375 C 0.765625 -10.144531 0.8125 -10.191406 0.875 -10.234375 C 0.9375 -10.285156 0.992188 -10.3125 1.046875 -10.3125 C 1.097656 -10.3125 1.15625 -10.285156 1.21875 -10.234375 C 1.289062 -10.191406 1.335938 -10.144531 1.359375 -10.09375 C 1.398438 -9.96875 1.425781 -9.84375 1.4375 -9.71875 C 1.445312 -9.601562 1.457031 -9.484375 1.46875 -9.359375 C 1.5 -8.515625 1.523438 -7.671875 1.546875 -6.828125 C 1.578125 -5.984375 1.601562 -5.132812 1.625 -4.28125 C 1.632812 -4.195312 1.644531 -4.101562 1.65625 -4 C 1.664062 -3.90625 1.679688 -3.785156 1.703125 -3.640625 C 1.785156 -3.753906 1.859375 -3.851562 1.921875 -3.9375 C 1.984375 -4.03125 2.046875 -4.109375 2.109375 -4.171875 C 2.234375 -4.296875 2.351562 -4.414062 2.46875 -4.53125 C 2.59375 -4.65625 2.726562 -4.765625 2.875 -4.859375 C 3.457031 -5.234375 3.988281 -5.328125 4.46875 -5.140625 C 4.957031 -4.960938 5.289062 -4.546875 5.46875 -3.890625 C 5.550781 -3.523438 5.601562 -3.15625 5.625 -2.78125 C 5.65625 -2.40625 5.691406 -2.023438 5.734375 -1.640625 Z M 5.734375 -1.640625 "/></g></g></g><g fill="#2db5a3" fill-opacity="1"><g transform="translate(168.915161, 166.62201)"><g><path d="M 1.84375 -3.171875 C 1.84375 -3.171875 1.820312 -3.15625 1.78125 -3.125 C 1.726562 -2.726562 1.785156 -2.375 1.953125 -2.0625 C 2.128906 -1.757812 2.378906 -1.519531 2.703125 -1.34375 C 3.035156 -1.175781 3.40625 -1.113281 3.8125 -1.15625 C 4 -1.1875 4.1875 -1.21875 4.375 -1.25 C 4.5625 -1.28125 4.75 -1.289062 4.9375 -1.28125 C 5.03125 -1.269531 5.140625 -1.226562 5.265625 -1.15625 C 5.398438 -1.09375 5.472656 -1.023438 5.484375 -0.953125 C 5.503906 -0.878906 5.476562 -0.78125 5.40625 -0.65625 C 5.332031 -0.539062 5.253906 -0.460938 5.171875 -0.421875 C 4.671875 -0.160156 4.160156 -0.0195312 3.640625 0 C 3.128906 0.0195312 2.617188 -0.0976562 2.109375 -0.359375 C 1.609375 -0.609375 1.226562 -0.9375 0.96875 -1.34375 C 0.707031 -1.757812 0.566406 -2.234375 0.546875 -2.765625 C 0.515625 -3.929688 0.875 -4.992188 1.625 -5.953125 C 1.957031 -6.378906 2.351562 -6.644531 2.8125 -6.75 C 3.269531 -6.863281 3.75 -6.804688 4.25 -6.578125 C 4.726562 -6.359375 5.082031 -6.023438 5.3125 -5.578125 C 5.539062 -5.140625 5.597656 -4.675781 5.484375 -4.1875 C 5.335938 -3.5625 4.816406 -3.234375 3.921875 -3.203125 C 3.566406 -3.203125 3.21875 -3.195312 2.875 -3.1875 C 2.53125 -3.1875 2.1875 -3.179688 1.84375 -3.171875 Z M 2.703125 -5.546875 C 2.484375 -5.347656 2.3125 -5.117188 2.1875 -4.859375 C 2.070312 -4.609375 1.972656 -4.34375 1.890625 -4.0625 C 2.253906 -4.070312 2.609375 -4.082031 2.953125 -4.09375 C 3.304688 -4.101562 3.648438 -4.125 3.984375 -4.15625 C 4.078125 -4.164062 4.171875 -4.195312 4.265625 -4.25 C 4.359375 -4.300781 4.425781 -4.363281 4.46875 -4.4375 C 4.539062 -4.59375 4.523438 -4.785156 4.421875 -5.015625 C 4.328125 -5.253906 4.191406 -5.429688 4.015625 -5.546875 C 3.773438 -5.691406 3.535156 -5.765625 3.296875 -5.765625 C 3.066406 -5.765625 2.867188 -5.691406 2.703125 -5.546875 Z M 2.703125 -5.546875 "/></g></g></g><g fill="#2db5a3" fill-opacity="1"><g transform="translate(178.770101, 166.62201)"><g><path d="M 6.6875 -1.53125 C 6.707031 -1.394531 6.734375 -1.253906 6.765625 -1.109375 C 6.796875 -0.972656 6.796875 -0.84375 6.765625 -0.71875 C 6.753906 -0.601562 6.710938 -0.492188 6.640625 -0.390625 C 6.566406 -0.285156 6.484375 -0.210938 6.390625 -0.171875 C 6.316406 -0.148438 6.210938 -0.164062 6.078125 -0.21875 C 5.941406 -0.269531 5.859375 -0.335938 5.828125 -0.421875 C 5.703125 -0.691406 5.585938 -0.96875 5.484375 -1.25 C 5.378906 -1.53125 5.273438 -1.8125 5.171875 -2.09375 C 5.148438 -2.132812 5.132812 -2.179688 5.125 -2.234375 C 5.113281 -2.285156 5.097656 -2.351562 5.078125 -2.4375 C 4.941406 -2.289062 4.820312 -2.144531 4.71875 -2 C 4.625 -1.863281 4.507812 -1.738281 4.375 -1.625 C 4.226562 -1.488281 4.070312 -1.351562 3.90625 -1.21875 C 3.75 -1.082031 3.578125 -0.960938 3.390625 -0.859375 C 2.859375 -0.578125 2.34375 -0.53125 1.84375 -0.71875 C 1.351562 -0.90625 0.988281 -1.28125 0.75 -1.84375 C 0.601562 -2.195312 0.535156 -2.578125 0.546875 -2.984375 C 0.566406 -3.390625 0.660156 -3.785156 0.828125 -4.171875 C 1.003906 -4.566406 1.242188 -4.898438 1.546875 -5.171875 C 1.691406 -5.304688 1.84375 -5.429688 2 -5.546875 C 2.15625 -5.671875 2.320312 -5.78125 2.5 -5.875 C 2.800781 -6.0625 3.066406 -6.191406 3.296875 -6.265625 C 3.535156 -6.335938 3.773438 -6.359375 4.015625 -6.328125 C 4.253906 -6.304688 4.523438 -6.242188 4.828125 -6.140625 C 4.972656 -6.160156 5.113281 -6.191406 5.25 -6.234375 C 5.394531 -6.285156 5.53125 -6.296875 5.65625 -6.265625 C 5.832031 -6.234375 5.941406 -6.140625 5.984375 -5.984375 C 6.023438 -5.828125 6.0625 -5.664062 6.09375 -5.5 C 6.1875 -4.84375 6.285156 -4.179688 6.390625 -3.515625 C 6.492188 -2.847656 6.59375 -2.1875 6.6875 -1.53125 Z M 4.6875 -4.359375 C 4.789062 -4.660156 4.765625 -4.898438 4.609375 -5.078125 C 4.453125 -5.253906 4.210938 -5.320312 3.890625 -5.28125 C 3.640625 -5.25 3.390625 -5.15625 3.140625 -5 C 2.898438 -4.851562 2.675781 -4.660156 2.46875 -4.421875 C 2.257812 -4.179688 2.085938 -3.921875 1.953125 -3.640625 C 1.828125 -3.359375 1.757812 -3.082031 1.75 -2.8125 C 1.769531 -2.675781 1.800781 -2.515625 1.84375 -2.328125 C 1.894531 -2.140625 2.019531 -2 2.21875 -1.90625 C 2.414062 -1.789062 2.597656 -1.773438 2.765625 -1.859375 C 2.929688 -1.953125 3.085938 -2.054688 3.234375 -2.171875 C 3.585938 -2.460938 3.878906 -2.789062 4.109375 -3.15625 C 4.347656 -3.519531 4.539062 -3.921875 4.6875 -4.359375 Z M 4.6875 -4.359375 "/></g></g></g><g fill="#2db5a3" fill-opacity="1"><g transform="translate(189.864882, 166.62201)"><g><path d="M 1.625 -4.453125 C 1.632812 -3.910156 1.648438 -3.367188 1.671875 -2.828125 C 1.691406 -2.285156 1.703125 -1.742188 1.703125 -1.203125 C 1.703125 -1.035156 1.6875 -0.875 1.65625 -0.71875 C 1.632812 -0.5625 1.59375 -0.410156 1.53125 -0.265625 C 1.457031 -0.078125 1.335938 0.0195312 1.171875 0.03125 C 1.003906 0.0390625 0.867188 -0.046875 0.765625 -0.234375 C 0.628906 -0.472656 0.554688 -0.734375 0.546875 -1.015625 C 0.546875 -1.222656 0.546875 -1.515625 0.546875 -1.890625 C 0.546875 -2.273438 0.546875 -2.707031 0.546875 -3.1875 C 0.554688 -3.675781 0.566406 -4.175781 0.578125 -4.6875 C 0.585938 -5.207031 0.59375 -5.703125 0.59375 -6.171875 C 0.601562 -6.648438 0.609375 -7.078125 0.609375 -7.453125 C 0.617188 -7.828125 0.625 -8.113281 0.625 -8.3125 C 0.625 -8.382812 0.625 -8.460938 0.625 -8.546875 C 0.625 -8.628906 0.632812 -8.707031 0.65625 -8.78125 C 0.6875 -8.84375 0.734375 -8.910156 0.796875 -8.984375 C 0.859375 -9.066406 0.914062 -9.109375 0.96875 -9.109375 C 1.050781 -9.109375 1.132812 -9.082031 1.21875 -9.03125 C 1.3125 -8.976562 1.375 -8.914062 1.40625 -8.84375 C 1.457031 -8.726562 1.492188 -8.597656 1.515625 -8.453125 C 1.546875 -8.316406 1.5625 -8.179688 1.5625 -8.046875 C 1.582031 -7.441406 1.597656 -6.84375 1.609375 -6.25 C 1.617188 -5.65625 1.625 -5.054688 1.625 -4.453125 Z M 1.625 -4.453125 "/></g></g></g><g fill="#2db5a3" fill-opacity="1"><g transform="translate(195.879024, 166.62201)"><g><path d="M 5.40625 -0.84375 C 5.445312 -0.644531 5.398438 -0.503906 5.265625 -0.421875 C 5.128906 -0.335938 4.988281 -0.265625 4.84375 -0.203125 C 4.175781 0.0664062 3.570312 0.101562 3.03125 -0.09375 C 2.5 -0.300781 2.101562 -0.738281 1.84375 -1.40625 C 1.695312 -1.789062 1.585938 -2.195312 1.515625 -2.625 C 1.453125 -3.050781 1.363281 -3.492188 1.25 -3.953125 C 1.25 -3.953125 1.21875 -3.953125 1.15625 -3.953125 C 1.09375 -3.953125 1.039062 -3.960938 1 -3.984375 C 0.90625 -4.046875 0.804688 -4.113281 0.703125 -4.1875 C 0.597656 -4.257812 0.546875 -4.335938 0.546875 -4.421875 C 0.546875 -4.503906 0.585938 -4.609375 0.671875 -4.734375 C 0.753906 -4.859375 0.832031 -4.921875 0.90625 -4.921875 C 1.125 -4.929688 1.28125 -4.984375 1.375 -5.078125 C 1.476562 -5.171875 1.546875 -5.289062 1.578125 -5.4375 C 1.609375 -5.582031 1.640625 -5.726562 1.671875 -5.875 C 1.703125 -6.113281 1.75 -6.34375 1.8125 -6.5625 C 1.882812 -6.78125 1.953125 -7.003906 2.015625 -7.234375 C 2.054688 -7.359375 2.117188 -7.46875 2.203125 -7.5625 C 2.296875 -7.65625 2.425781 -7.675781 2.59375 -7.625 C 2.757812 -7.59375 2.851562 -7.515625 2.875 -7.390625 C 2.894531 -7.273438 2.898438 -7.148438 2.890625 -7.015625 C 2.835938 -6.722656 2.789062 -6.429688 2.75 -6.140625 C 2.71875 -5.847656 2.679688 -5.539062 2.640625 -5.21875 C 2.785156 -5.226562 2.914062 -5.238281 3.03125 -5.25 C 3.15625 -5.257812 3.273438 -5.265625 3.390625 -5.265625 C 3.585938 -5.253906 3.785156 -5.238281 3.984375 -5.21875 C 4.179688 -5.207031 4.375 -5.179688 4.5625 -5.140625 C 4.632812 -5.117188 4.707031 -5.0625 4.78125 -4.96875 C 4.851562 -4.875 4.894531 -4.789062 4.90625 -4.71875 C 4.90625 -4.644531 4.867188 -4.554688 4.796875 -4.453125 C 4.734375 -4.347656 4.664062 -4.289062 4.59375 -4.28125 C 4.363281 -4.207031 4.125 -4.148438 3.875 -4.109375 C 3.632812 -4.078125 3.394531 -4.039062 3.15625 -4 C 3.070312 -3.988281 2.984375 -3.984375 2.890625 -3.984375 C 2.804688 -3.984375 2.710938 -3.976562 2.609375 -3.96875 C 2.554688 -3.488281 2.570312 -3.035156 2.65625 -2.609375 C 2.738281 -2.179688 2.921875 -1.78125 3.203125 -1.40625 C 3.316406 -1.226562 3.453125 -1.117188 3.609375 -1.078125 C 3.765625 -1.046875 3.925781 -1.035156 4.09375 -1.046875 C 4.269531 -1.054688 4.441406 -1.070312 4.609375 -1.09375 C 4.710938 -1.09375 4.816406 -1.101562 4.921875 -1.125 C 5.023438 -1.15625 5.117188 -1.15625 5.203125 -1.125 C 5.296875 -1.09375 5.363281 -1 5.40625 -0.84375 Z M 5.40625 -0.84375 "/></g></g></g><g fill="#2db5a3" fill-opacity="1"><g transform="translate(205.612678, 166.62201)"><g><path d="M 5.734375 -1.640625 C 5.742188 -1.492188 5.710938 -1.359375 5.640625 -1.234375 C 5.578125 -1.109375 5.453125 -1.039062 5.265625 -1.03125 C 5.078125 -1 4.929688 -1.035156 4.828125 -1.140625 C 4.722656 -1.253906 4.65625 -1.390625 4.625 -1.546875 C 4.59375 -1.710938 4.570312 -1.878906 4.5625 -2.046875 C 4.5625 -2.210938 4.550781 -2.375 4.53125 -2.53125 C 4.5 -2.738281 4.472656 -2.945312 4.453125 -3.15625 C 4.429688 -3.363281 4.398438 -3.570312 4.359375 -3.78125 C 4.316406 -3.9375 4.238281 -4.046875 4.125 -4.109375 C 4.019531 -4.171875 3.882812 -4.15625 3.71875 -4.0625 C 3.59375 -3.988281 3.46875 -3.90625 3.34375 -3.8125 C 3.226562 -3.726562 3.125 -3.625 3.03125 -3.5 C 2.726562 -3.101562 2.492188 -2.675781 2.328125 -2.21875 C 2.160156 -1.757812 2.046875 -1.28125 1.984375 -0.78125 C 1.972656 -0.726562 1.960938 -0.671875 1.953125 -0.609375 C 1.953125 -0.554688 1.941406 -0.5 1.921875 -0.4375 C 1.878906 -0.300781 1.8125 -0.1875 1.71875 -0.09375 C 1.625 0 1.492188 0.0390625 1.328125 0.03125 C 1.160156 0.0195312 1.03125 -0.03125 0.9375 -0.125 C 0.84375 -0.226562 0.785156 -0.359375 0.765625 -0.515625 C 0.742188 -0.660156 0.734375 -0.8125 0.734375 -0.96875 C 0.734375 -1.125 0.726562 -1.273438 0.71875 -1.421875 C 0.625 -2.804688 0.566406 -4.1875 0.546875 -5.5625 C 0.535156 -6.945312 0.570312 -8.332031 0.65625 -9.71875 C 0.664062 -9.78125 0.671875 -9.84375 0.671875 -9.90625 C 0.679688 -9.976562 0.703125 -10.039062 0.734375 -10.09375 C 0.765625 -10.144531 0.8125 -10.191406 0.875 -10.234375 C 0.9375 -10.285156 0.992188 -10.3125 1.046875 -10.3125 C 1.097656 -10.3125 1.15625 -10.285156 1.21875 -10.234375 C 1.289062 -10.191406 1.335938 -10.144531 1.359375 -10.09375 C 1.398438 -9.96875 1.425781 -9.84375 1.4375 -9.71875 C 1.445312 -9.601562 1.457031 -9.484375 1.46875 -9.359375 C 1.5 -8.515625 1.523438 -7.671875 1.546875 -6.828125 C 1.578125 -5.984375 1.601562 -5.132812 1.625 -4.28125 C 1.632812 -4.195312 1.644531 -4.101562 1.65625 -4 C 1.664062 -3.90625 1.679688 -3.785156 1.703125 -3.640625 C 1.785156 -3.753906 1.859375 -3.851562 1.921875 -3.9375 C 1.984375 -4.03125 2.046875 -4.109375 2.109375 -4.171875 C 2.234375 -4.296875 2.351562 -4.414062 2.46875 -4.53125 C 2.59375 -4.65625 2.726562 -4.765625 2.875 -4.859375 C 3.457031 -5.234375 3.988281 -5.328125 4.46875 -5.140625 C 4.957031 -4.960938 5.289062 -4.546875 5.46875 -3.890625 C 5.550781 -3.523438 5.601562 -3.15625 5.625 -2.78125 C 5.65625 -2.40625 5.691406 -2.023438 5.734375 -1.640625 Z M 5.734375 -1.640625 "/></g></g></g><g fill="#2db5a3" fill-opacity="1"><g transform="translate(215.656299, 166.62201)"><g><path d="M 5 -5.609375 C 5.15625 -5.554688 5.238281 -5.460938 5.25 -5.328125 C 5.257812 -5.203125 5.242188 -5.078125 5.203125 -4.953125 C 5.015625 -4.410156 4.828125 -3.867188 4.640625 -3.328125 C 4.453125 -2.785156 4.257812 -2.25 4.0625 -1.71875 C 3.800781 -1.050781 3.539062 -0.382812 3.28125 0.28125 C 3.019531 0.945312 2.75 1.613281 2.46875 2.28125 C 2.40625 2.445312 2.320312 2.609375 2.21875 2.765625 C 2.125 2.929688 2.023438 3.09375 1.921875 3.25 C 1.867188 3.300781 1.796875 3.34375 1.703125 3.375 C 1.609375 3.40625 1.53125 3.410156 1.46875 3.390625 C 1.40625 3.378906 1.34375 3.332031 1.28125 3.25 C 1.21875 3.175781 1.179688 3.101562 1.171875 3.03125 C 1.160156 2.875 1.15625 2.710938 1.15625 2.546875 C 1.164062 2.378906 1.191406 2.21875 1.234375 2.0625 C 1.347656 1.71875 1.46875 1.378906 1.59375 1.046875 C 1.71875 0.710938 1.847656 0.382812 1.984375 0.0625 C 2.023438 -0.0390625 2.039062 -0.128906 2.03125 -0.203125 C 2.019531 -0.285156 1.984375 -0.375 1.921875 -0.46875 C 1.203125 -1.5625 0.75 -2.742188 0.5625 -4.015625 C 0.550781 -4.085938 0.546875 -4.164062 0.546875 -4.25 C 0.546875 -4.332031 0.550781 -4.410156 0.5625 -4.484375 C 0.570312 -4.617188 0.613281 -4.738281 0.6875 -4.84375 C 0.757812 -4.945312 0.867188 -4.988281 1.015625 -4.96875 C 1.097656 -4.945312 1.1875 -4.894531 1.28125 -4.8125 C 1.375 -4.726562 1.4375 -4.644531 1.46875 -4.5625 C 1.550781 -4.363281 1.609375 -4.15625 1.640625 -3.9375 C 1.679688 -3.71875 1.742188 -3.503906 1.828125 -3.296875 C 1.929688 -3.003906 2.050781 -2.707031 2.1875 -2.40625 C 2.320312 -2.113281 2.453125 -1.820312 2.578125 -1.53125 C 2.609375 -1.53125 2.648438 -1.535156 2.703125 -1.546875 C 2.773438 -1.710938 2.847656 -1.875 2.921875 -2.03125 C 2.992188 -2.1875 3.066406 -2.347656 3.140625 -2.515625 C 3.359375 -2.972656 3.570312 -3.425781 3.78125 -3.875 C 3.988281 -4.320312 4.203125 -4.769531 4.421875 -5.21875 C 4.472656 -5.332031 4.539062 -5.441406 4.625 -5.546875 C 4.707031 -5.648438 4.832031 -5.671875 5 -5.609375 Z M 5 -5.609375 "/></g></g></g><g fill="#2db5a3" fill-opacity="1"><g transform="translate(225.22824, 166.62201)"><g><path d="M 1.390625 -2.3125 C 1.660156 -2.21875 1.875 -2.035156 2.03125 -1.765625 C 2.1875 -1.503906 2.257812 -1.191406 2.25 -0.828125 C 2.226562 -0.515625 2.15625 -0.207031 2.03125 0.09375 C 1.914062 0.40625 1.722656 0.6875 1.453125 0.9375 C 1.347656 1.039062 1.234375 1.113281 1.109375 1.15625 C 0.984375 1.207031 0.847656 1.175781 0.703125 1.0625 C 0.566406 0.96875 0.519531 0.859375 0.5625 0.734375 C 0.601562 0.609375 0.648438 0.484375 0.703125 0.359375 C 0.796875 0.203125 0.875 0.0390625 0.9375 -0.125 C 1.007812 -0.300781 1.082031 -0.476562 1.15625 -0.65625 C 1.226562 -0.84375 1.25 -1.015625 1.21875 -1.171875 C 1.1875 -1.335938 1.09375 -1.488281 0.9375 -1.625 C 0.875 -1.6875 0.835938 -1.773438 0.828125 -1.890625 C 0.828125 -2.003906 0.816406 -2.113281 0.796875 -2.21875 C 0.890625 -2.226562 0.988281 -2.25 1.09375 -2.28125 C 1.195312 -2.320312 1.296875 -2.332031 1.390625 -2.3125 Z M 1.390625 -2.3125 "/></g></g></g><g fill="#2db5a3" fill-opacity="1"><g transform="translate(231.794928, 166.62201)"><g><path d="M 8.9375 -6.34375 C 9.125 -6.1875 9.191406 -6.023438 9.140625 -5.859375 C 9.085938 -5.703125 9.019531 -5.539062 8.9375 -5.375 C 8.625 -4.738281 8.3125 -4.101562 8 -3.46875 C 7.695312 -2.832031 7.390625 -2.191406 7.078125 -1.546875 C 7.023438 -1.429688 6.96875 -1.316406 6.90625 -1.203125 C 6.851562 -1.085938 6.785156 -0.972656 6.703125 -0.859375 C 6.472656 -0.578125 6.210938 -0.445312 5.921875 -0.46875 C 5.628906 -0.488281 5.398438 -0.660156 5.234375 -0.984375 C 5.140625 -1.160156 5.0625 -1.34375 5 -1.53125 C 4.945312 -1.71875 4.890625 -1.90625 4.828125 -2.09375 C 4.753906 -2.28125 4.6875 -2.472656 4.625 -2.671875 C 4.570312 -2.867188 4.503906 -3.085938 4.421875 -3.328125 C 4.328125 -3.046875 4.234375 -2.78125 4.140625 -2.53125 C 4.054688 -2.289062 3.96875 -2.054688 3.875 -1.828125 C 3.78125 -1.597656 3.679688 -1.367188 3.578125 -1.140625 C 3.472656 -0.921875 3.351562 -0.707031 3.21875 -0.5 C 3.070312 -0.289062 2.90625 -0.15625 2.71875 -0.09375 C 2.53125 -0.0390625 2.347656 -0.0546875 2.171875 -0.140625 C 2.003906 -0.234375 1.878906 -0.398438 1.796875 -0.640625 C 1.566406 -1.296875 1.351562 -1.957031 1.15625 -2.625 C 0.96875 -3.300781 0.773438 -3.976562 0.578125 -4.65625 C 0.546875 -4.800781 0.546875 -4.941406 0.578125 -5.078125 C 0.617188 -5.210938 0.734375 -5.304688 0.921875 -5.359375 C 1.109375 -5.398438 1.238281 -5.359375 1.3125 -5.234375 C 1.394531 -5.117188 1.460938 -4.992188 1.515625 -4.859375 C 1.679688 -4.390625 1.84375 -3.921875 2 -3.453125 C 2.164062 -2.984375 2.335938 -2.507812 2.515625 -2.03125 C 2.523438 -2.03125 2.539062 -2.03125 2.5625 -2.03125 C 2.59375 -2.03125 2.613281 -2.03125 2.625 -2.03125 C 2.75 -2.34375 2.867188 -2.648438 2.984375 -2.953125 C 3.097656 -3.265625 3.210938 -3.578125 3.328125 -3.890625 C 3.410156 -4.085938 3.488281 -4.28125 3.5625 -4.46875 C 3.644531 -4.664062 3.726562 -4.859375 3.8125 -5.046875 C 3.882812 -5.203125 3.976562 -5.335938 4.09375 -5.453125 C 4.21875 -5.566406 4.378906 -5.613281 4.578125 -5.59375 C 4.765625 -5.570312 4.898438 -5.5 4.984375 -5.375 C 5.078125 -5.25 5.148438 -5.109375 5.203125 -4.953125 C 5.316406 -4.578125 5.4375 -4.207031 5.5625 -3.84375 C 5.695312 -3.476562 5.828125 -3.109375 5.953125 -2.734375 C 5.960938 -2.679688 5.976562 -2.625 6 -2.5625 C 6.03125 -2.507812 6.054688 -2.4375 6.078125 -2.34375 C 6.179688 -2.539062 6.273438 -2.722656 6.359375 -2.890625 C 6.441406 -3.066406 6.523438 -3.234375 6.609375 -3.390625 C 6.742188 -3.671875 6.878906 -3.953125 7.015625 -4.234375 C 7.148438 -4.523438 7.289062 -4.804688 7.4375 -5.078125 C 7.507812 -5.242188 7.59375 -5.398438 7.6875 -5.546875 C 7.78125 -5.703125 7.878906 -5.851562 7.984375 -6 C 8.148438 -6.21875 8.316406 -6.359375 8.484375 -6.421875 C 8.660156 -6.484375 8.8125 -6.457031 8.9375 -6.34375 Z M 8.9375 -6.34375 "/></g></g></g><g fill="#2db5a3" fill-opacity="1"><g transform="translate(245.248097, 166.62201)"><g><path d="M 1.84375 -3.171875 C 1.84375 -3.171875 1.820312 -3.15625 1.78125 -3.125 C 1.726562 -2.726562 1.785156 -2.375 1.953125 -2.0625 C 2.128906 -1.757812 2.378906 -1.519531 2.703125 -1.34375 C 3.035156 -1.175781 3.40625 -1.113281 3.8125 -1.15625 C 4 -1.1875 4.1875 -1.21875 4.375 -1.25 C 4.5625 -1.28125 4.75 -1.289062 4.9375 -1.28125 C 5.03125 -1.269531 5.140625 -1.226562 5.265625 -1.15625 C 5.398438 -1.09375 5.472656 -1.023438 5.484375 -0.953125 C 5.503906 -0.878906 5.476562 -0.78125 5.40625 -0.65625 C 5.332031 -0.539062 5.253906 -0.460938 5.171875 -0.421875 C 4.671875 -0.160156 4.160156 -0.0195312 3.640625 0 C 3.128906 0.0195312 2.617188 -0.0976562 2.109375 -0.359375 C 1.609375 -0.609375 1.226562 -0.9375 0.96875 -1.34375 C 0.707031 -1.757812 0.566406 -2.234375 0.546875 -2.765625 C 0.515625 -3.929688 0.875 -4.992188 1.625 -5.953125 C 1.957031 -6.378906 2.351562 -6.644531 2.8125 -6.75 C 3.269531 -6.863281 3.75 -6.804688 4.25 -6.578125 C 4.726562 -6.359375 5.082031 -6.023438 5.3125 -5.578125 C 5.539062 -5.140625 5.597656 -4.675781 5.484375 -4.1875 C 5.335938 -3.5625 4.816406 -3.234375 3.921875 -3.203125 C 3.566406 -3.203125 3.21875 -3.195312 2.875 -3.1875 C 2.53125 -3.1875 2.1875 -3.179688 1.84375 -3.171875 Z M 2.703125 -5.546875 C 2.484375 -5.347656 2.3125 -5.117188 2.1875 -4.859375 C 2.070312 -4.609375 1.972656 -4.34375 1.890625 -4.0625 C 2.253906 -4.070312 2.609375 -4.082031 2.953125 -4.09375 C 3.304688 -4.101562 3.648438 -4.125 3.984375 -4.15625 C 4.078125 -4.164062 4.171875 -4.195312 4.265625 -4.25 C 4.359375 -4.300781 4.425781 -4.363281 4.46875 -4.4375 C 4.539062 -4.59375 4.523438 -4.785156 4.421875 -5.015625 C 4.328125 -5.253906 4.191406 -5.429688 4.015625 -5.546875 C 3.773438 -5.691406 3.535156 -5.765625 3.296875 -5.765625 C 3.066406 -5.765625 2.867188 -5.691406 2.703125 -5.546875 Z M 2.703125 -5.546875 "/></g></g></g><g fill="#2db5a3" fill-opacity="1"><g transform="translate(255.103039, 166.62201)"><g><path d="M 1.625 -4.453125 C 1.632812 -3.910156 1.648438 -3.367188 1.671875 -2.828125 C 1.691406 -2.285156 1.703125 -1.742188 1.703125 -1.203125 C 1.703125 -1.035156 1.6875 -0.875 1.65625 -0.71875 C 1.632812 -0.5625 1.59375 -0.410156 1.53125 -0.265625 C 1.457031 -0.078125 1.335938 0.0195312 1.171875 0.03125 C 1.003906 0.0390625 0.867188 -0.046875 0.765625 -0.234375 C 0.628906 -0.472656 0.554688 -0.734375 0.546875 -1.015625 C 0.546875 -1.222656 0.546875 -1.515625 0.546875 -1.890625 C 0.546875 -2.273438 0.546875 -2.707031 0.546875 -3.1875 C 0.554688 -3.675781 0.566406 -4.175781 0.578125 -4.6875 C 0.585938 -5.207031 0.59375 -5.703125 0.59375 -6.171875 C 0.601562 -6.648438 0.609375 -7.078125 0.609375 -7.453125 C 0.617188 -7.828125 0.625 -8.113281 0.625 -8.3125 C 0.625 -8.382812 0.625 -8.460938 0.625 -8.546875 C 0.625 -8.628906 0.632812 -8.707031 0.65625 -8.78125 C 0.6875 -8.84375 0.734375 -8.910156 0.796875 -8.984375 C 0.859375 -9.066406 0.914062 -9.109375 0.96875 -9.109375 C 1.050781 -9.109375 1.132812 -9.082031 1.21875 -9.03125 C 1.3125 -8.976562 1.375 -8.914062 1.40625 -8.84375 C 1.457031 -8.726562 1.492188 -8.597656 1.515625 -8.453125 C 1.546875 -8.316406 1.5625 -8.179688 1.5625 -8.046875 C 1.582031 -7.441406 1.597656 -6.84375 1.609375 -6.25 C 1.617188 -5.65625 1.625 -5.054688 1.625 -4.453125 Z M 1.625 -4.453125 "/></g></g></g><g fill="#2db5a3" fill-opacity="1"><g transform="translate(261.117184, 166.62201)"><g><path d="M 1.625 -4.453125 C 1.632812 -3.910156 1.648438 -3.367188 1.671875 -2.828125 C 1.691406 -2.285156 1.703125 -1.742188 1.703125 -1.203125 C 1.703125 -1.035156 1.6875 -0.875 1.65625 -0.71875 C 1.632812 -0.5625 1.59375 -0.410156 1.53125 -0.265625 C 1.457031 -0.078125 1.335938 0.0195312 1.171875 0.03125 C 1.003906 0.0390625 0.867188 -0.046875 0.765625 -0.234375 C 0.628906 -0.472656 0.554688 -0.734375 0.546875 -1.015625 C 0.546875 -1.222656 0.546875 -1.515625 0.546875 -1.890625 C 0.546875 -2.273438 0.546875 -2.707031 0.546875 -3.1875 C 0.554688 -3.675781 0.566406 -4.175781 0.578125 -4.6875 C 0.585938 -5.207031 0.59375 -5.703125 0.59375 -6.171875 C 0.601562 -6.648438 0.609375 -7.078125 0.609375 -7.453125 C 0.617188 -7.828125 0.625 -8.113281 0.625 -8.3125 C 0.625 -8.382812 0.625 -8.460938 0.625 -8.546875 C 0.625 -8.628906 0.632812 -8.707031 0.65625 -8.78125 C 0.6875 -8.84375 0.734375 -8.910156 0.796875 -8.984375 C 0.859375 -9.066406 0.914062 -9.109375 0.96875 -9.109375 C 1.050781 -9.109375 1.132812 -9.082031 1.21875 -9.03125 C 1.3125 -8.976562 1.375 -8.914062 1.40625 -8.84375 C 1.457031 -8.726562 1.492188 -8.597656 1.515625 -8.453125 C 1.546875 -8.316406 1.5625 -8.179688 1.5625 -8.046875 C 1.582031 -7.441406 1.597656 -6.84375 1.609375 -6.25 C 1.617188 -5.65625 1.625 -5.054688 1.625 -4.453125 Z M 1.625 -4.453125 "/></g></g></g><g fill="#2db5a3" fill-opacity="1"><g transform="translate(267.131328, 166.62201)"><g><path d="M 1.390625 -2.3125 C 1.660156 -2.21875 1.875 -2.035156 2.03125 -1.765625 C 2.1875 -1.503906 2.257812 -1.191406 2.25 -0.828125 C 2.226562 -0.515625 2.15625 -0.207031 2.03125 0.09375 C 1.914062 0.40625 1.722656 0.6875 1.453125 0.9375 C 1.347656 1.039062 1.234375 1.113281 1.109375 1.15625 C 0.984375 1.207031 0.847656 1.175781 0.703125 1.0625 C 0.566406 0.96875 0.519531 0.859375 0.5625 0.734375 C 0.601562 0.609375 0.648438 0.484375 0.703125 0.359375 C 0.796875 0.203125 0.875 0.0390625 0.9375 -0.125 C 1.007812 -0.300781 1.082031 -0.476562 1.15625 -0.65625 C 1.226562 -0.84375 1.25 -1.015625 1.21875 -1.171875 C 1.1875 -1.335938 1.09375 -1.488281 0.9375 -1.625 C 0.875 -1.6875 0.835938 -1.773438 0.828125 -1.890625 C 0.828125 -2.003906 0.816406 -2.113281 0.796875 -2.21875 C 0.890625 -2.226562 0.988281 -2.25 1.09375 -2.28125 C 1.195312 -2.320312 1.296875 -2.332031 1.390625 -2.3125 Z M 1.390625 -2.3125 "/></g></g></g><g fill="#2db5a3" fill-opacity="1"><g transform="translate(273.698016, 166.62201)"><g><path d="M 5.125 -1.59375 C 5.1875 -1.550781 5.238281 -1.484375 5.28125 -1.390625 C 5.320312 -1.304688 5.34375 -1.226562 5.34375 -1.15625 C 5.332031 -0.945312 5.265625 -0.757812 5.140625 -0.59375 C 5.023438 -0.425781 4.867188 -0.300781 4.671875 -0.21875 C 4.171875 0.0195312 3.675781 0.125 3.1875 0.09375 C 2.695312 0.0625 2.226562 -0.0976562 1.78125 -0.390625 C 1.34375 -0.671875 1.023438 -1.039062 0.828125 -1.5 C 0.628906 -1.96875 0.535156 -2.566406 0.546875 -3.296875 C 0.609375 -3.503906 0.6875 -3.789062 0.78125 -4.15625 C 0.882812 -4.53125 1.015625 -4.90625 1.171875 -5.28125 C 1.410156 -5.851562 1.769531 -6.242188 2.25 -6.453125 C 2.726562 -6.660156 3.265625 -6.6875 3.859375 -6.53125 C 3.929688 -6.507812 4.003906 -6.476562 4.078125 -6.4375 C 4.148438 -6.40625 4.21875 -6.363281 4.28125 -6.3125 C 4.382812 -6.207031 4.414062 -6.082031 4.375 -5.9375 C 4.375 -5.894531 4.335938 -5.851562 4.265625 -5.8125 C 4.203125 -5.78125 4.140625 -5.765625 4.078125 -5.765625 C 3.953125 -5.742188 3.820312 -5.726562 3.6875 -5.71875 C 3.5625 -5.71875 3.429688 -5.71875 3.296875 -5.71875 C 3.015625 -5.71875 2.78125 -5.640625 2.59375 -5.484375 C 2.40625 -5.335938 2.25 -5.144531 2.125 -4.90625 C 1.78125 -4.175781 1.625 -3.40625 1.65625 -2.59375 C 1.675781 -2.269531 1.773438 -1.988281 1.953125 -1.75 C 2.140625 -1.519531 2.375 -1.34375 2.65625 -1.21875 C 2.945312 -1.101562 3.25 -1.054688 3.5625 -1.078125 C 3.882812 -1.109375 4.191406 -1.21875 4.484375 -1.40625 C 4.523438 -1.414062 4.5625 -1.4375 4.59375 -1.46875 C 4.625 -1.507812 4.65625 -1.535156 4.6875 -1.546875 C 4.757812 -1.566406 4.835938 -1.582031 4.921875 -1.59375 C 5.015625 -1.613281 5.082031 -1.613281 5.125 -1.59375 Z M 5.125 -1.59375 "/></g></g></g><g fill="#2db5a3" fill-opacity="1"><g transform="translate(283.33734, 166.62201)"><g><path d="M 6.6875 -1.53125 C 6.707031 -1.394531 6.734375 -1.253906 6.765625 -1.109375 C 6.796875 -0.972656 6.796875 -0.84375 6.765625 -0.71875 C 6.753906 -0.601562 6.710938 -0.492188 6.640625 -0.390625 C 6.566406 -0.285156 6.484375 -0.210938 6.390625 -0.171875 C 6.316406 -0.148438 6.210938 -0.164062 6.078125 -0.21875 C 5.941406 -0.269531 5.859375 -0.335938 5.828125 -0.421875 C 5.703125 -0.691406 5.585938 -0.96875 5.484375 -1.25 C 5.378906 -1.53125 5.273438 -1.8125 5.171875 -2.09375 C 5.148438 -2.132812 5.132812 -2.179688 5.125 -2.234375 C 5.113281 -2.285156 5.097656 -2.351562 5.078125 -2.4375 C 4.941406 -2.289062 4.820312 -2.144531 4.71875 -2 C 4.625 -1.863281 4.507812 -1.738281 4.375 -1.625 C 4.226562 -1.488281 4.070312 -1.351562 3.90625 -1.21875 C 3.75 -1.082031 3.578125 -0.960938 3.390625 -0.859375 C 2.859375 -0.578125 2.34375 -0.53125 1.84375 -0.71875 C 1.351562 -0.90625 0.988281 -1.28125 0.75 -1.84375 C 0.601562 -2.195312 0.535156 -2.578125 0.546875 -2.984375 C 0.566406 -3.390625 0.660156 -3.785156 0.828125 -4.171875 C 1.003906 -4.566406 1.242188 -4.898438 1.546875 -5.171875 C 1.691406 -5.304688 1.84375 -5.429688 2 -5.546875 C 2.15625 -5.671875 2.320312 -5.78125 2.5 -5.875 C 2.800781 -6.0625 3.066406 -6.191406 3.296875 -6.265625 C 3.535156 -6.335938 3.773438 -6.359375 4.015625 -6.328125 C 4.253906 -6.304688 4.523438 -6.242188 4.828125 -6.140625 C 4.972656 -6.160156 5.113281 -6.191406 5.25 -6.234375 C 5.394531 -6.285156 5.53125 -6.296875 5.65625 -6.265625 C 5.832031 -6.234375 5.941406 -6.140625 5.984375 -5.984375 C 6.023438 -5.828125 6.0625 -5.664062 6.09375 -5.5 C 6.1875 -4.84375 6.285156 -4.179688 6.390625 -3.515625 C 6.492188 -2.847656 6.59375 -2.1875 6.6875 -1.53125 Z M 4.6875 -4.359375 C 4.789062 -4.660156 4.765625 -4.898438 4.609375 -5.078125 C 4.453125 -5.253906 4.210938 -5.320312 3.890625 -5.28125 C 3.640625 -5.25 3.390625 -5.15625 3.140625 -5 C 2.898438 -4.851562 2.675781 -4.660156 2.46875 -4.421875 C 2.257812 -4.179688 2.085938 -3.921875 1.953125 -3.640625 C 1.828125 -3.359375 1.757812 -3.082031 1.75 -2.8125 C 1.769531 -2.675781 1.800781 -2.515625 1.84375 -2.328125 C 1.894531 -2.140625 2.019531 -2 2.21875 -1.90625 C 2.414062 -1.789062 2.597656 -1.773438 2.765625 -1.859375 C 2.929688 -1.953125 3.085938 -2.054688 3.234375 -2.171875 C 3.585938 -2.460938 3.878906 -2.789062 4.109375 -3.15625 C 4.347656 -3.519531 4.539062 -3.921875 4.6875 -4.359375 Z M 4.6875 -4.359375 "/></g></g></g><g fill="#2db5a3" fill-opacity="1"><g transform="translate(294.432123, 166.62201)"><g><path d="M 5.578125 -5.0625 C 5.628906 -4.988281 5.664062 -4.882812 5.6875 -4.75 C 5.707031 -4.613281 5.695312 -4.515625 5.65625 -4.453125 C 5.613281 -4.390625 5.523438 -4.347656 5.390625 -4.328125 C 5.265625 -4.304688 5.15625 -4.300781 5.0625 -4.3125 C 4.957031 -4.320312 4.859375 -4.351562 4.765625 -4.40625 C 4.679688 -4.457031 4.597656 -4.515625 4.515625 -4.578125 C 4.242188 -4.722656 4.023438 -4.789062 3.859375 -4.78125 C 3.691406 -4.769531 3.5 -4.65625 3.28125 -4.4375 C 2.882812 -4.050781 2.570312 -3.617188 2.34375 -3.140625 C 2.125 -2.660156 1.972656 -2.148438 1.890625 -1.609375 C 1.867188 -1.460938 1.851562 -1.316406 1.84375 -1.171875 C 1.832031 -1.023438 1.820312 -0.878906 1.8125 -0.734375 C 1.789062 -0.554688 1.738281 -0.398438 1.65625 -0.265625 C 1.570312 -0.140625 1.425781 -0.0703125 1.21875 -0.0625 C 1.007812 -0.0625 0.851562 -0.125 0.75 -0.25 C 0.65625 -0.375 0.609375 -0.53125 0.609375 -0.71875 C 0.578125 -1.132812 0.554688 -1.550781 0.546875 -1.96875 C 0.546875 -2.394531 0.550781 -2.8125 0.5625 -3.21875 C 0.570312 -3.644531 0.597656 -4.066406 0.640625 -4.484375 C 0.679688 -4.898438 0.71875 -5.316406 0.75 -5.734375 C 0.757812 -5.796875 0.765625 -5.863281 0.765625 -5.9375 C 0.773438 -6.007812 0.800781 -6.066406 0.84375 -6.109375 C 0.90625 -6.179688 0.972656 -6.253906 1.046875 -6.328125 C 1.128906 -6.410156 1.203125 -6.453125 1.265625 -6.453125 C 1.347656 -6.441406 1.4375 -6.394531 1.53125 -6.3125 C 1.632812 -6.226562 1.695312 -6.148438 1.71875 -6.078125 C 1.75 -5.847656 1.769531 -5.613281 1.78125 -5.375 C 1.789062 -5.132812 1.800781 -4.890625 1.8125 -4.640625 C 2 -4.796875 2.175781 -4.953125 2.34375 -5.109375 C 2.519531 -5.273438 2.703125 -5.425781 2.890625 -5.5625 C 3.191406 -5.757812 3.507812 -5.867188 3.84375 -5.890625 C 4.175781 -5.921875 4.492188 -5.863281 4.796875 -5.71875 C 5.109375 -5.582031 5.367188 -5.363281 5.578125 -5.0625 Z M 5.578125 -5.0625 "/></g></g></g><g fill="#2db5a3" fill-opacity="1"><g transform="translate(304.435311, 166.62201)"><g><path d="M 1.84375 -3.171875 C 1.84375 -3.171875 1.820312 -3.15625 1.78125 -3.125 C 1.726562 -2.726562 1.785156 -2.375 1.953125 -2.0625 C 2.128906 -1.757812 2.378906 -1.519531 2.703125 -1.34375 C 3.035156 -1.175781 3.40625 -1.113281 3.8125 -1.15625 C 4 -1.1875 4.1875 -1.21875 4.375 -1.25 C 4.5625 -1.28125 4.75 -1.289062 4.9375 -1.28125 C 5.03125 -1.269531 5.140625 -1.226562 5.265625 -1.15625 C 5.398438 -1.09375 5.472656 -1.023438 5.484375 -0.953125 C 5.503906 -0.878906 5.476562 -0.78125 5.40625 -0.65625 C 5.332031 -0.539062 5.253906 -0.460938 5.171875 -0.421875 C 4.671875 -0.160156 4.160156 -0.0195312 3.640625 0 C 3.128906 0.0195312 2.617188 -0.0976562 2.109375 -0.359375 C 1.609375 -0.609375 1.226562 -0.9375 0.96875 -1.34375 C 0.707031 -1.757812 0.566406 -2.234375 0.546875 -2.765625 C 0.515625 -3.929688 0.875 -4.992188 1.625 -5.953125 C 1.957031 -6.378906 2.351562 -6.644531 2.8125 -6.75 C 3.269531 -6.863281 3.75 -6.804688 4.25 -6.578125 C 4.726562 -6.359375 5.082031 -6.023438 5.3125 -5.578125 C 5.539062 -5.140625 5.597656 -4.675781 5.484375 -4.1875 C 5.335938 -3.5625 4.816406 -3.234375 3.921875 -3.203125 C 3.566406 -3.203125 3.21875 -3.195312 2.875 -3.1875 C 2.53125 -3.1875 2.1875 -3.179688 1.84375 -3.171875 Z M 2.703125 -5.546875 C 2.484375 -5.347656 2.3125 -5.117188 2.1875 -4.859375 C 2.070312 -4.609375 1.972656 -4.34375 1.890625 -4.0625 C 2.253906 -4.070312 2.609375 -4.082031 2.953125 -4.09375 C 3.304688 -4.101562 3.648438 -4.125 3.984375 -4.15625 C 4.078125 -4.164062 4.171875 -4.195312 4.265625 -4.25 C 4.359375 -4.300781 4.425781 -4.363281 4.46875 -4.4375 C 4.539062 -4.59375 4.523438 -4.785156 4.421875 -5.015625 C 4.328125 -5.253906 4.191406 -5.429688 4.015625 -5.546875 C 3.773438 -5.691406 3.535156 -5.765625 3.296875 -5.765625 C 3.066406 -5.765625 2.867188 -5.691406 2.703125 -5.546875 Z M 2.703125 -5.546875 "/></g></g></g><g clip-path="url(#e11f462f52)"><g clip-path="url(#7fec5e786d)"><path fill="#80cc28" d="M 128.394531 134.027344 L 109.089844 142.800781 C 132.089844 153.523438 139.390625 129.917969 139.390625 129.917969 L 139.335938 129.9375 C 138.59375 129.484375 118.285156 117.371094 108.089844 139.902344 L 128.394531 134.027344 " fill-opacity="1" fill-rule="nonzero"/></g></g><g clip-path="url(#e84cfe25f7)"><g clip-path="url(#c28780f56d)"><path fill="#80cc28" d="M 104.824219 119.691406 L 101.976562 135.691406 C 89.648438 120.648438 105.789062 110.746094 105.789062 110.746094 L 105.785156 110.789062 C 106.261719 111.257812 119.113281 124.035156 104.320312 135.882812 L 104.824219 119.691406 " fill-opacity="1" fill-rule="nonzero"/></g></g><g clip-path="url(#715fe7f14f)"><g clip-path="url(#044ce80317)"><path fill="#80cc28" d="M 119.371094 120.441406 L 115.085938 124.195312 C 115.011719 117.378906 121.597656 118.207031 121.597656 118.207031 L 121.585938 118.21875 C 121.613281 118.449219 122.328125 124.761719 115.683594 124.757812 L 119.371094 120.441406 " fill-opacity="1" fill-rule="nonzero"/></g></g><g clip-path="url(#24b26a5cb1)"><g clip-path="url(#8b309c88b8)"><path fill="#80cc28" d="M 91.398438 132.179688 L 95.683594 138.320312 C 86.765625 137.4375 88.796875 128.953125 88.796875 128.953125 L 88.8125 128.96875 C 89.117188 128.964844 97.46875 128.941406 96.507812 137.621094 L 91.398438 132.179688 " fill-opacity="1" fill-rule="nonzero"/></g></g><g clip-path="url(#e75ba10950)"><g clip-path="url(#011cbeb649)"><path fill="#80cc28" d="M 100.707031 148 C 98.429688 148 96.585938 146.15625 96.585938 143.878906 C 96.585938 141.605469 98.429688 139.757812 100.707031 139.757812 C 102.980469 139.757812 104.828125 141.605469 104.828125 143.878906 C 104.828125 146.15625 102.980469 148 100.707031 148 " fill-opacity="1" fill-rule="nonzero"/></g></g><g clip-path="url(#9d3955fd60)"><g clip-path="url(#eca3206cd8)"><path fill="#80cc28" d="M 131.667969 163.535156 L 131.667969 145.878906 C 130.800781 146.429688 129.90625 146.914062 128.984375 147.332031 L 128.984375 160.40625 C 130.023438 161.472656 130.914062 162.539062 131.667969 163.535156 " fill-opacity="1" fill-rule="nonzero"/></g></g><g clip-path="url(#b0b0acf7a0)"><g clip-path="url(#00cbfec5e1)"><path fill="#80cc28" d="M 52.265625 143.496094 L 76.96875 143.496094 L 76.96875 115.609375 L 96.277344 115.609375 C 96.851562 114.628906 97.488281 113.734375 98.140625 112.929688 L 74.289062 112.929688 L 74.289062 140.8125 L 50.503906 140.8125 C 50.9375 141.53125 51.527344 142.453125 52.265625 143.496094 " fill-opacity="1" fill-rule="nonzero"/></g></g><g clip-path="url(#a709f40074)"><g clip-path="url(#57bd4a416d)"><path fill="#2db5a3" d="M 74.289062 170.308594 L 74.289062 198.191406 L 103.78125 198.191406 L 103.78125 170.308594 L 131.667969 170.308594 C 131.667969 170.308594 120.851562 145.59375 91.402344 158.660156 C 61.765625 171.808594 46.402344 140.8125 46.402344 140.8125 L 46.402344 170.308594 L 74.289062 170.308594 " fill-opacity="1" fill-rule="nonzero"/></g></g><g clip-path="url(#9e8582ec9f)"><g clip-path="url(#ff50ae1587)"><g clip-path="url(#1e8d09601f)"><path fill="#2db5a3" d="M 87.535156 156.03125 L 111.761719 151.367188 L 113.695312 161.402344 L 89.46875 166.066406 Z M 87.535156 156.03125 " fill-opacity="1" fill-rule="nonzero"/></g></g></g><g fill="#2db5a3" fill-opacity="1"><g transform="translate(182.573371, 188.523064)"><g><path d="M 5.203125 -4.8125 C 5.367188 -4.25 5.40625 -3.726562 5.3125 -3.25 C 5.226562 -2.769531 5.03125 -2.347656 4.71875 -1.984375 C 4.414062 -1.628906 4.019531 -1.359375 3.53125 -1.171875 C 3.050781 -0.984375 2.492188 -0.90625 1.859375 -0.9375 C 1.847656 -0.875 1.84375 -0.800781 1.84375 -0.71875 C 1.84375 -0.644531 1.84375 -0.566406 1.84375 -0.484375 C 1.832031 -0.109375 1.816406 0.269531 1.796875 0.65625 C 1.785156 1.039062 1.773438 1.425781 1.765625 1.8125 C 1.753906 1.90625 1.742188 2.003906 1.734375 2.109375 C 1.734375 2.222656 1.703125 2.316406 1.640625 2.390625 C 1.578125 2.472656 1.492188 2.546875 1.390625 2.609375 C 1.285156 2.679688 1.191406 2.71875 1.109375 2.71875 C 1.023438 2.71875 0.941406 2.671875 0.859375 2.578125 C 0.785156 2.492188 0.710938 2.410156 0.640625 2.328125 C 0.609375 2.296875 0.59375 2.25 0.59375 2.1875 C 0.59375 2.125 0.59375 2.0625 0.59375 2 C 0.582031 1.21875 0.570312 0.4375 0.5625 -0.34375 C 0.550781 -1.125 0.550781 -1.90625 0.5625 -2.6875 C 0.570312 -3.175781 0.601562 -3.664062 0.65625 -4.15625 C 0.707031 -4.644531 0.757812 -5.128906 0.8125 -5.609375 C 0.820312 -5.691406 0.867188 -5.78125 0.953125 -5.875 C 1.035156 -5.976562 1.113281 -6.035156 1.1875 -6.046875 C 1.257812 -6.054688 1.335938 -6.019531 1.421875 -5.9375 C 1.503906 -5.851562 1.582031 -5.773438 1.65625 -5.703125 C 1.675781 -5.691406 1.691406 -5.664062 1.703125 -5.625 C 1.710938 -5.582031 1.722656 -5.539062 1.734375 -5.5 C 1.847656 -5.570312 1.953125 -5.644531 2.046875 -5.71875 C 2.148438 -5.800781 2.253906 -5.867188 2.359375 -5.921875 C 2.734375 -6.148438 3.113281 -6.25 3.5 -6.21875 C 3.894531 -6.1875 4.242188 -6.046875 4.546875 -5.796875 C 4.859375 -5.554688 5.078125 -5.226562 5.203125 -4.8125 Z M 3.828125 -2.796875 C 3.992188 -2.953125 4.113281 -3.160156 4.1875 -3.421875 C 4.269531 -3.691406 4.300781 -3.960938 4.28125 -4.234375 C 4.257812 -4.503906 4.175781 -4.734375 4.03125 -4.921875 C 3.988281 -4.984375 3.925781 -5.039062 3.84375 -5.09375 C 3.757812 -5.15625 3.671875 -5.195312 3.578125 -5.21875 C 3.429688 -5.25 3.257812 -5.234375 3.0625 -5.171875 C 2.863281 -5.117188 2.671875 -5.03125 2.484375 -4.90625 C 2.296875 -4.78125 2.140625 -4.632812 2.015625 -4.46875 C 1.890625 -4.3125 1.816406 -4.15625 1.796875 -4 C 1.765625 -3.6875 1.753906 -3.363281 1.765625 -3.03125 C 1.773438 -2.695312 1.78125 -2.363281 1.78125 -2.03125 C 2.21875 -1.96875 2.597656 -2.019531 2.921875 -2.1875 C 3.253906 -2.351562 3.554688 -2.554688 3.828125 -2.796875 Z M 3.828125 -2.796875 "/></g></g></g><g fill="#2db5a3" fill-opacity="1"><g transform="translate(189.890338, 188.523064)"><g><path d="M 6.703125 -1.53125 C 6.710938 -1.394531 6.734375 -1.253906 6.765625 -1.109375 C 6.796875 -0.972656 6.800781 -0.84375 6.78125 -0.71875 C 6.769531 -0.601562 6.722656 -0.492188 6.640625 -0.390625 C 6.566406 -0.285156 6.488281 -0.210938 6.40625 -0.171875 C 6.332031 -0.148438 6.226562 -0.164062 6.09375 -0.21875 C 5.957031 -0.269531 5.867188 -0.335938 5.828125 -0.421875 C 5.703125 -0.691406 5.585938 -0.96875 5.484375 -1.25 C 5.378906 -1.53125 5.273438 -1.8125 5.171875 -2.09375 C 5.148438 -2.132812 5.132812 -2.179688 5.125 -2.234375 C 5.113281 -2.296875 5.101562 -2.363281 5.09375 -2.4375 C 4.957031 -2.289062 4.835938 -2.144531 4.734375 -2 C 4.628906 -1.863281 4.515625 -1.742188 4.390625 -1.640625 C 4.234375 -1.492188 4.070312 -1.351562 3.90625 -1.21875 C 3.75 -1.082031 3.582031 -0.960938 3.40625 -0.859375 C 2.863281 -0.585938 2.34375 -0.539062 1.84375 -0.71875 C 1.351562 -0.90625 0.988281 -1.28125 0.75 -1.84375 C 0.601562 -2.195312 0.535156 -2.578125 0.546875 -2.984375 C 0.566406 -3.398438 0.660156 -3.800781 0.828125 -4.1875 C 1.003906 -4.570312 1.242188 -4.90625 1.546875 -5.1875 C 1.691406 -5.320312 1.84375 -5.445312 2 -5.5625 C 2.15625 -5.675781 2.320312 -5.785156 2.5 -5.890625 C 2.800781 -6.078125 3.066406 -6.207031 3.296875 -6.28125 C 3.535156 -6.351562 3.773438 -6.375 4.015625 -6.34375 C 4.253906 -6.3125 4.523438 -6.242188 4.828125 -6.140625 C 4.972656 -6.171875 5.113281 -6.207031 5.25 -6.25 C 5.394531 -6.289062 5.53125 -6.300781 5.65625 -6.28125 C 5.832031 -6.238281 5.941406 -6.140625 5.984375 -5.984375 C 6.035156 -5.828125 6.078125 -5.671875 6.109375 -5.515625 C 6.191406 -4.847656 6.285156 -4.179688 6.390625 -3.515625 C 6.492188 -2.859375 6.597656 -2.195312 6.703125 -1.53125 Z M 4.703125 -4.359375 C 4.796875 -4.660156 4.765625 -4.898438 4.609375 -5.078125 C 4.460938 -5.253906 4.222656 -5.328125 3.890625 -5.296875 C 3.648438 -5.253906 3.40625 -5.15625 3.15625 -5 C 2.90625 -4.851562 2.675781 -4.660156 2.46875 -4.421875 C 2.257812 -4.179688 2.085938 -3.921875 1.953125 -3.640625 C 1.828125 -3.359375 1.757812 -3.085938 1.75 -2.828125 C 1.769531 -2.679688 1.804688 -2.515625 1.859375 -2.328125 C 1.910156 -2.140625 2.03125 -2 2.21875 -1.90625 C 2.414062 -1.789062 2.597656 -1.773438 2.765625 -1.859375 C 2.941406 -1.953125 3.097656 -2.054688 3.234375 -2.171875 C 3.585938 -2.460938 3.878906 -2.789062 4.109375 -3.15625 C 4.347656 -3.53125 4.546875 -3.929688 4.703125 -4.359375 Z M 4.703125 -4.359375 "/></g></g></g><g fill="#2db5a3" fill-opacity="1"><g transform="translate(198.638297, 188.523064)"><g><path d="M 5.59375 -5.078125 C 5.644531 -4.992188 5.675781 -4.882812 5.6875 -4.75 C 5.707031 -4.613281 5.695312 -4.515625 5.65625 -4.453125 C 5.625 -4.390625 5.539062 -4.347656 5.40625 -4.328125 C 5.28125 -4.316406 5.164062 -4.3125 5.0625 -4.3125 C 4.957031 -4.320312 4.859375 -4.351562 4.765625 -4.40625 C 4.679688 -4.46875 4.597656 -4.523438 4.515625 -4.578125 C 4.253906 -4.734375 4.039062 -4.800781 3.875 -4.78125 C 3.707031 -4.769531 3.507812 -4.65625 3.28125 -4.4375 C 2.882812 -4.050781 2.570312 -3.617188 2.34375 -3.140625 C 2.125 -2.671875 1.972656 -2.160156 1.890625 -1.609375 C 1.867188 -1.460938 1.851562 -1.316406 1.84375 -1.171875 C 1.84375 -1.023438 1.832031 -0.882812 1.8125 -0.75 C 1.789062 -0.5625 1.738281 -0.398438 1.65625 -0.265625 C 1.570312 -0.140625 1.425781 -0.0703125 1.21875 -0.0625 C 1.007812 -0.0625 0.851562 -0.125 0.75 -0.25 C 0.65625 -0.382812 0.609375 -0.539062 0.609375 -0.71875 C 0.578125 -1.132812 0.554688 -1.550781 0.546875 -1.96875 C 0.546875 -2.394531 0.550781 -2.8125 0.5625 -3.21875 C 0.570312 -3.644531 0.597656 -4.066406 0.640625 -4.484375 C 0.679688 -4.898438 0.71875 -5.316406 0.75 -5.734375 C 0.757812 -5.796875 0.765625 -5.863281 0.765625 -5.9375 C 0.773438 -6.007812 0.800781 -6.066406 0.84375 -6.109375 C 0.90625 -6.179688 0.972656 -6.257812 1.046875 -6.34375 C 1.128906 -6.425781 1.203125 -6.460938 1.265625 -6.453125 C 1.347656 -6.441406 1.4375 -6.394531 1.53125 -6.3125 C 1.632812 -6.238281 1.695312 -6.164062 1.71875 -6.09375 C 1.75 -5.851562 1.769531 -5.613281 1.78125 -5.375 C 1.789062 -5.132812 1.800781 -4.890625 1.8125 -4.640625 C 2 -4.804688 2.175781 -4.96875 2.34375 -5.125 C 2.519531 -5.289062 2.703125 -5.4375 2.890625 -5.5625 C 3.191406 -5.757812 3.507812 -5.867188 3.84375 -5.890625 C 4.175781 -5.921875 4.492188 -5.863281 4.796875 -5.71875 C 5.109375 -5.582031 5.375 -5.367188 5.59375 -5.078125 Z M 5.59375 -5.078125 "/></g></g></g><g fill="#2db5a3" fill-opacity="1"><g transform="translate(206.292762, 188.523064)"><g><path d="M 6.703125 -1.53125 C 6.710938 -1.394531 6.734375 -1.253906 6.765625 -1.109375 C 6.796875 -0.972656 6.800781 -0.84375 6.78125 -0.71875 C 6.769531 -0.601562 6.722656 -0.492188 6.640625 -0.390625 C 6.566406 -0.285156 6.488281 -0.210938 6.40625 -0.171875 C 6.332031 -0.148438 6.226562 -0.164062 6.09375 -0.21875 C 5.957031 -0.269531 5.867188 -0.335938 5.828125 -0.421875 C 5.703125 -0.691406 5.585938 -0.96875 5.484375 -1.25 C 5.378906 -1.53125 5.273438 -1.8125 5.171875 -2.09375 C 5.148438 -2.132812 5.132812 -2.179688 5.125 -2.234375 C 5.113281 -2.296875 5.101562 -2.363281 5.09375 -2.4375 C 4.957031 -2.289062 4.835938 -2.144531 4.734375 -2 C 4.628906 -1.863281 4.515625 -1.742188 4.390625 -1.640625 C 4.234375 -1.492188 4.070312 -1.351562 3.90625 -1.21875 C 3.75 -1.082031 3.582031 -0.960938 3.40625 -0.859375 C 2.863281 -0.585938 2.34375 -0.539062 1.84375 -0.71875 C 1.351562 -0.90625 0.988281 -1.28125 0.75 -1.84375 C 0.601562 -2.195312 0.535156 -2.578125 0.546875 -2.984375 C 0.566406 -3.398438 0.660156 -3.800781 0.828125 -4.1875 C 1.003906 -4.570312 1.242188 -4.90625 1.546875 -5.1875 C 1.691406 -5.320312 1.84375 -5.445312 2 -5.5625 C 2.15625 -5.675781 2.320312 -5.785156 2.5 -5.890625 C 2.800781 -6.078125 3.066406 -6.207031 3.296875 -6.28125 C 3.535156 -6.351562 3.773438 -6.375 4.015625 -6.34375 C 4.253906 -6.3125 4.523438 -6.242188 4.828125 -6.140625 C 4.972656 -6.171875 5.113281 -6.207031 5.25 -6.25 C 5.394531 -6.289062 5.53125 -6.300781 5.65625 -6.28125 C 5.832031 -6.238281 5.941406 -6.140625 5.984375 -5.984375 C 6.035156 -5.828125 6.078125 -5.671875 6.109375 -5.515625 C 6.191406 -4.847656 6.285156 -4.179688 6.390625 -3.515625 C 6.492188 -2.859375 6.597656 -2.195312 6.703125 -1.53125 Z M 4.703125 -4.359375 C 4.796875 -4.660156 4.765625 -4.898438 4.609375 -5.078125 C 4.460938 -5.253906 4.222656 -5.328125 3.890625 -5.296875 C 3.648438 -5.253906 3.40625 -5.15625 3.15625 -5 C 2.90625 -4.851562 2.675781 -4.660156 2.46875 -4.421875 C 2.257812 -4.179688 2.085938 -3.921875 1.953125 -3.640625 C 1.828125 -3.359375 1.757812 -3.085938 1.75 -2.828125 C 1.769531 -2.679688 1.804688 -2.515625 1.859375 -2.328125 C 1.910156 -2.140625 2.03125 -2 2.21875 -1.90625 C 2.414062 -1.789062 2.597656 -1.773438 2.765625 -1.859375 C 2.941406 -1.953125 3.097656 -2.054688 3.234375 -2.171875 C 3.585938 -2.460938 3.878906 -2.789062 4.109375 -3.15625 C 4.347656 -3.53125 4.546875 -3.929688 4.703125 -4.359375 Z M 4.703125 -4.359375 "/></g></g></g><g fill="#2db5a3" fill-opacity="1"><g transform="translate(215.040721, 188.523064)"><g><path d="M 5.203125 -4.8125 C 5.367188 -4.25 5.40625 -3.726562 5.3125 -3.25 C 5.226562 -2.769531 5.03125 -2.347656 4.71875 -1.984375 C 4.414062 -1.628906 4.019531 -1.359375 3.53125 -1.171875 C 3.050781 -0.984375 2.492188 -0.90625 1.859375 -0.9375 C 1.847656 -0.875 1.84375 -0.800781 1.84375 -0.71875 C 1.84375 -0.644531 1.84375 -0.566406 1.84375 -0.484375 C 1.832031 -0.109375 1.816406 0.269531 1.796875 0.65625 C 1.785156 1.039062 1.773438 1.425781 1.765625 1.8125 C 1.753906 1.90625 1.742188 2.003906 1.734375 2.109375 C 1.734375 2.222656 1.703125 2.316406 1.640625 2.390625 C 1.578125 2.472656 1.492188 2.546875 1.390625 2.609375 C 1.285156 2.679688 1.191406 2.71875 1.109375 2.71875 C 1.023438 2.71875 0.941406 2.671875 0.859375 2.578125 C 0.785156 2.492188 0.710938 2.410156 0.640625 2.328125 C 0.609375 2.296875 0.59375 2.25 0.59375 2.1875 C 0.59375 2.125 0.59375 2.0625 0.59375 2 C 0.582031 1.21875 0.570312 0.4375 0.5625 -0.34375 C 0.550781 -1.125 0.550781 -1.90625 0.5625 -2.6875 C 0.570312 -3.175781 0.601562 -3.664062 0.65625 -4.15625 C 0.707031 -4.644531 0.757812 -5.128906 0.8125 -5.609375 C 0.820312 -5.691406 0.867188 -5.78125 0.953125 -5.875 C 1.035156 -5.976562 1.113281 -6.035156 1.1875 -6.046875 C 1.257812 -6.054688 1.335938 -6.019531 1.421875 -5.9375 C 1.503906 -5.851562 1.582031 -5.773438 1.65625 -5.703125 C 1.675781 -5.691406 1.691406 -5.664062 1.703125 -5.625 C 1.710938 -5.582031 1.722656 -5.539062 1.734375 -5.5 C 1.847656 -5.570312 1.953125 -5.644531 2.046875 -5.71875 C 2.148438 -5.800781 2.253906 -5.867188 2.359375 -5.921875 C 2.734375 -6.148438 3.113281 -6.25 3.5 -6.21875 C 3.894531 -6.1875 4.242188 -6.046875 4.546875 -5.796875 C 4.859375 -5.554688 5.078125 -5.226562 5.203125 -4.8125 Z M 3.828125 -2.796875 C 3.992188 -2.953125 4.113281 -3.160156 4.1875 -3.421875 C 4.269531 -3.691406 4.300781 -3.960938 4.28125 -4.234375 C 4.257812 -4.503906 4.175781 -4.734375 4.03125 -4.921875 C 3.988281 -4.984375 3.925781 -5.039062 3.84375 -5.09375 C 3.757812 -5.15625 3.671875 -5.195312 3.578125 -5.21875 C 3.429688 -5.25 3.257812 -5.234375 3.0625 -5.171875 C 2.863281 -5.117188 2.671875 -5.03125 2.484375 -4.90625 C 2.296875 -4.78125 2.140625 -4.632812 2.015625 -4.46875 C 1.890625 -4.3125 1.816406 -4.15625 1.796875 -4 C 1.765625 -3.6875 1.753906 -3.363281 1.765625 -3.03125 C 1.773438 -2.695312 1.78125 -2.363281 1.78125 -2.03125 C 2.21875 -1.96875 2.597656 -2.019531 2.921875 -2.1875 C 3.253906 -2.351562 3.554688 -2.554688 3.828125 -2.796875 Z M 3.828125 -2.796875 "/></g></g></g><g fill="#2db5a3" fill-opacity="1"><g transform="translate(222.357689, 188.523064)"><g><path d="M 5.734375 -1.640625 C 5.742188 -1.492188 5.710938 -1.359375 5.640625 -1.234375 C 5.578125 -1.109375 5.457031 -1.039062 5.28125 -1.03125 C 5.09375 -1 4.945312 -1.035156 4.84375 -1.140625 C 4.738281 -1.253906 4.664062 -1.390625 4.625 -1.546875 C 4.59375 -1.710938 4.570312 -1.878906 4.5625 -2.046875 C 4.5625 -2.210938 4.550781 -2.375 4.53125 -2.53125 C 4.507812 -2.738281 4.484375 -2.945312 4.453125 -3.15625 C 4.429688 -3.363281 4.398438 -3.570312 4.359375 -3.78125 C 4.328125 -3.9375 4.253906 -4.046875 4.140625 -4.109375 C 4.023438 -4.179688 3.882812 -4.164062 3.71875 -4.0625 C 3.59375 -3.988281 3.46875 -3.90625 3.34375 -3.8125 C 3.226562 -3.726562 3.125 -3.628906 3.03125 -3.515625 C 2.726562 -3.117188 2.492188 -2.6875 2.328125 -2.21875 C 2.160156 -1.757812 2.046875 -1.28125 1.984375 -0.78125 C 1.972656 -0.726562 1.960938 -0.671875 1.953125 -0.609375 C 1.953125 -0.554688 1.945312 -0.503906 1.9375 -0.453125 C 1.882812 -0.304688 1.8125 -0.1875 1.71875 -0.09375 C 1.625 0 1.5 0.0390625 1.34375 0.03125 C 1.164062 0.0195312 1.03125 -0.03125 0.9375 -0.125 C 0.84375 -0.226562 0.785156 -0.359375 0.765625 -0.515625 C 0.753906 -0.671875 0.742188 -0.820312 0.734375 -0.96875 C 0.734375 -1.125 0.726562 -1.28125 0.71875 -1.4375 C 0.625 -2.820312 0.566406 -4.203125 0.546875 -5.578125 C 0.535156 -6.960938 0.570312 -8.347656 0.65625 -9.734375 C 0.664062 -9.796875 0.671875 -9.859375 0.671875 -9.921875 C 0.679688 -9.992188 0.703125 -10.054688 0.734375 -10.109375 C 0.765625 -10.148438 0.8125 -10.195312 0.875 -10.25 C 0.9375 -10.300781 0.992188 -10.328125 1.046875 -10.328125 C 1.109375 -10.328125 1.171875 -10.300781 1.234375 -10.25 C 1.304688 -10.195312 1.347656 -10.144531 1.359375 -10.09375 C 1.398438 -9.976562 1.425781 -9.859375 1.4375 -9.734375 C 1.445312 -9.617188 1.457031 -9.5 1.46875 -9.375 C 1.5 -8.519531 1.523438 -7.671875 1.546875 -6.828125 C 1.578125 -5.984375 1.609375 -5.140625 1.640625 -4.296875 C 1.640625 -4.203125 1.644531 -4.101562 1.65625 -4 C 1.664062 -3.90625 1.679688 -3.785156 1.703125 -3.640625 C 1.796875 -3.765625 1.867188 -3.867188 1.921875 -3.953125 C 1.984375 -4.035156 2.046875 -4.109375 2.109375 -4.171875 C 2.234375 -4.296875 2.351562 -4.414062 2.46875 -4.53125 C 2.59375 -4.65625 2.726562 -4.765625 2.875 -4.859375 C 3.457031 -5.234375 3.992188 -5.332031 4.484375 -5.15625 C 4.972656 -4.976562 5.300781 -4.554688 5.46875 -3.890625 C 5.5625 -3.523438 5.617188 -3.15625 5.640625 -2.78125 C 5.671875 -2.40625 5.703125 -2.023438 5.734375 -1.640625 Z M 5.734375 -1.640625 "/></g></g></g><g fill="#2db5a3" fill-opacity="1"><g transform="translate(230.052656, 188.523064)"><g><path d="M 6.703125 -1.53125 C 6.710938 -1.394531 6.734375 -1.253906 6.765625 -1.109375 C 6.796875 -0.972656 6.800781 -0.84375 6.78125 -0.71875 C 6.769531 -0.601562 6.722656 -0.492188 6.640625 -0.390625 C 6.566406 -0.285156 6.488281 -0.210938 6.40625 -0.171875 C 6.332031 -0.148438 6.226562 -0.164062 6.09375 -0.21875 C 5.957031 -0.269531 5.867188 -0.335938 5.828125 -0.421875 C 5.703125 -0.691406 5.585938 -0.96875 5.484375 -1.25 C 5.378906 -1.53125 5.273438 -1.8125 5.171875 -2.09375 C 5.148438 -2.132812 5.132812 -2.179688 5.125 -2.234375 C 5.113281 -2.296875 5.101562 -2.363281 5.09375 -2.4375 C 4.957031 -2.289062 4.835938 -2.144531 4.734375 -2 C 4.628906 -1.863281 4.515625 -1.742188 4.390625 -1.640625 C 4.234375 -1.492188 4.070312 -1.351562 3.90625 -1.21875 C 3.75 -1.082031 3.582031 -0.960938 3.40625 -0.859375 C 2.863281 -0.585938 2.34375 -0.539062 1.84375 -0.71875 C 1.351562 -0.90625 0.988281 -1.28125 0.75 -1.84375 C 0.601562 -2.195312 0.535156 -2.578125 0.546875 -2.984375 C 0.566406 -3.398438 0.660156 -3.800781 0.828125 -4.1875 C 1.003906 -4.570312 1.242188 -4.90625 1.546875 -5.1875 C 1.691406 -5.320312 1.84375 -5.445312 2 -5.5625 C 2.15625 -5.675781 2.320312 -5.785156 2.5 -5.890625 C 2.800781 -6.078125 3.066406 -6.207031 3.296875 -6.28125 C 3.535156 -6.351562 3.773438 -6.375 4.015625 -6.34375 C 4.253906 -6.3125 4.523438 -6.242188 4.828125 -6.140625 C 4.972656 -6.171875 5.113281 -6.207031 5.25 -6.25 C 5.394531 -6.289062 5.53125 -6.300781 5.65625 -6.28125 C 5.832031 -6.238281 5.941406 -6.140625 5.984375 -5.984375 C 6.035156 -5.828125 6.078125 -5.671875 6.109375 -5.515625 C 6.191406 -4.847656 6.285156 -4.179688 6.390625 -3.515625 C 6.492188 -2.859375 6.597656 -2.195312 6.703125 -1.53125 Z M 4.703125 -4.359375 C 4.796875 -4.660156 4.765625 -4.898438 4.609375 -5.078125 C 4.460938 -5.253906 4.222656 -5.328125 3.890625 -5.296875 C 3.648438 -5.253906 3.40625 -5.15625 3.15625 -5 C 2.90625 -4.851562 2.675781 -4.660156 2.46875 -4.421875 C 2.257812 -4.179688 2.085938 -3.921875 1.953125 -3.640625 C 1.828125 -3.359375 1.757812 -3.085938 1.75 -2.828125 C 1.769531 -2.679688 1.804688 -2.515625 1.859375 -2.328125 C 1.910156 -2.140625 2.03125 -2 2.21875 -1.90625 C 2.414062 -1.789062 2.597656 -1.773438 2.765625 -1.859375 C 2.941406 -1.953125 3.097656 -2.054688 3.234375 -2.171875 C 3.585938 -2.460938 3.878906 -2.789062 4.109375 -3.15625 C 4.347656 -3.53125 4.546875 -3.929688 4.703125 -4.359375 Z M 4.703125 -4.359375 "/></g></g></g><g fill="#2db5a3" fill-opacity="1"><g transform="translate(238.800616, 188.523064)"><g><path d="M 5.59375 -5.078125 C 5.644531 -4.992188 5.675781 -4.882812 5.6875 -4.75 C 5.707031 -4.613281 5.695312 -4.515625 5.65625 -4.453125 C 5.625 -4.390625 5.539062 -4.347656 5.40625 -4.328125 C 5.28125 -4.316406 5.164062 -4.3125 5.0625 -4.3125 C 4.957031 -4.320312 4.859375 -4.351562 4.765625 -4.40625 C 4.679688 -4.46875 4.597656 -4.523438 4.515625 -4.578125 C 4.253906 -4.734375 4.039062 -4.800781 3.875 -4.78125 C 3.707031 -4.769531 3.507812 -4.65625 3.28125 -4.4375 C 2.882812 -4.050781 2.570312 -3.617188 2.34375 -3.140625 C 2.125 -2.671875 1.972656 -2.160156 1.890625 -1.609375 C 1.867188 -1.460938 1.851562 -1.316406 1.84375 -1.171875 C 1.84375 -1.023438 1.832031 -0.882812 1.8125 -0.75 C 1.789062 -0.5625 1.738281 -0.398438 1.65625 -0.265625 C 1.570312 -0.140625 1.425781 -0.0703125 1.21875 -0.0625 C 1.007812 -0.0625 0.851562 -0.125 0.75 -0.25 C 0.65625 -0.382812 0.609375 -0.539062 0.609375 -0.71875 C 0.578125 -1.132812 0.554688 -1.550781 0.546875 -1.96875 C 0.546875 -2.394531 0.550781 -2.8125 0.5625 -3.21875 C 0.570312 -3.644531 0.597656 -4.066406 0.640625 -4.484375 C 0.679688 -4.898438 0.71875 -5.316406 0.75 -5.734375 C 0.757812 -5.796875 0.765625 -5.863281 0.765625 -5.9375 C 0.773438 -6.007812 0.800781 -6.066406 0.84375 -6.109375 C 0.90625 -6.179688 0.972656 -6.257812 1.046875 -6.34375 C 1.128906 -6.425781 1.203125 -6.460938 1.265625 -6.453125 C 1.347656 -6.441406 1.4375 -6.394531 1.53125 -6.3125 C 1.632812 -6.238281 1.695312 -6.164062 1.71875 -6.09375 C 1.75 -5.851562 1.769531 -5.613281 1.78125 -5.375 C 1.789062 -5.132812 1.800781 -4.890625 1.8125 -4.640625 C 2 -4.804688 2.175781 -4.96875 2.34375 -5.125 C 2.519531 -5.289062 2.703125 -5.4375 2.890625 -5.5625 C 3.191406 -5.757812 3.507812 -5.867188 3.84375 -5.890625 C 4.175781 -5.921875 4.492188 -5.863281 4.796875 -5.71875 C 5.109375 -5.582031 5.375 -5.367188 5.59375 -5.078125 Z M 5.59375 -5.078125 "/></g></g></g><g fill="#2db5a3" fill-opacity="1"><g transform="translate(246.455083, 188.523064)"><g><path d="M 8.53125 -4.015625 C 8.550781 -3.597656 8.5625 -3.179688 8.5625 -2.765625 C 8.570312 -2.347656 8.578125 -1.925781 8.578125 -1.5 C 8.578125 -1.394531 8.5625 -1.289062 8.53125 -1.1875 C 8.5 -1.09375 8.472656 -1 8.453125 -0.90625 C 8.410156 -0.769531 8.351562 -0.65625 8.28125 -0.5625 C 8.207031 -0.46875 8.085938 -0.425781 7.921875 -0.4375 C 7.765625 -0.445312 7.648438 -0.5 7.578125 -0.59375 C 7.515625 -0.695312 7.476562 -0.820312 7.46875 -0.96875 C 7.445312 -1.101562 7.4375 -1.238281 7.4375 -1.375 C 7.4375 -1.519531 7.4375 -1.660156 7.4375 -1.796875 C 7.4375 -2.179688 7.441406 -2.566406 7.453125 -2.953125 C 7.460938 -3.347656 7.46875 -3.742188 7.46875 -4.140625 C 7.457031 -4.234375 7.441406 -4.320312 7.421875 -4.40625 C 7.410156 -4.5 7.398438 -4.597656 7.390625 -4.703125 C 7.367188 -4.765625 7.328125 -4.8125 7.265625 -4.84375 C 7.210938 -4.882812 7.15625 -4.890625 7.09375 -4.859375 C 6.613281 -4.679688 6.28125 -4.390625 6.09375 -3.984375 C 5.9375 -3.648438 5.796875 -3.304688 5.671875 -2.953125 C 5.546875 -2.597656 5.425781 -2.242188 5.3125 -1.890625 C 5.269531 -1.796875 5.25 -1.691406 5.25 -1.578125 C 5.25 -1.472656 5.222656 -1.382812 5.171875 -1.3125 C 5.109375 -1.21875 5.023438 -1.125 4.921875 -1.03125 C 4.816406 -0.945312 4.71875 -0.90625 4.625 -0.90625 C 4.550781 -0.914062 4.460938 -0.96875 4.359375 -1.0625 C 4.265625 -1.15625 4.1875 -1.25 4.125 -1.34375 C 4.09375 -1.40625 4.082031 -1.484375 4.09375 -1.578125 C 4.101562 -1.671875 4.109375 -1.757812 4.109375 -1.84375 C 4.109375 -2.28125 4.101562 -2.707031 4.09375 -3.125 C 4.09375 -3.550781 4.082031 -3.984375 4.0625 -4.421875 C 4.0625 -4.484375 4.046875 -4.546875 4.015625 -4.609375 C 3.984375 -4.679688 3.953125 -4.753906 3.921875 -4.828125 C 3.859375 -4.953125 3.757812 -4.984375 3.625 -4.921875 C 3.550781 -4.890625 3.476562 -4.851562 3.40625 -4.8125 C 3.332031 -4.769531 3.265625 -4.722656 3.203125 -4.671875 C 2.765625 -4.210938 2.421875 -3.707031 2.171875 -3.15625 C 1.929688 -2.613281 1.753906 -2.039062 1.640625 -1.4375 C 1.640625 -1.382812 1.640625 -1.335938 1.640625 -1.296875 C 1.640625 -1.253906 1.628906 -1.210938 1.609375 -1.171875 C 1.566406 -1.003906 1.5 -0.867188 1.40625 -0.765625 C 1.3125 -0.660156 1.171875 -0.617188 0.984375 -0.640625 C 0.804688 -0.671875 0.6875 -0.75 0.625 -0.875 C 0.570312 -1 0.546875 -1.144531 0.546875 -1.3125 C 0.585938 -2 0.625 -2.6875 0.65625 -3.375 C 0.695312 -4.070312 0.734375 -4.769531 0.765625 -5.46875 C 0.765625 -5.507812 0.765625 -5.554688 0.765625 -5.609375 C 0.773438 -5.660156 0.789062 -5.695312 0.8125 -5.71875 C 0.863281 -5.78125 0.914062 -5.835938 0.96875 -5.890625 C 1.03125 -5.953125 1.085938 -6.007812 1.140625 -6.0625 C 1.203125 -6 1.265625 -5.9375 1.328125 -5.875 C 1.398438 -5.820312 1.4375 -5.757812 1.4375 -5.6875 C 1.457031 -5.5 1.46875 -5.304688 1.46875 -5.109375 C 1.46875 -4.910156 1.472656 -4.710938 1.484375 -4.515625 C 1.484375 -4.460938 1.484375 -4.40625 1.484375 -4.34375 C 1.492188 -4.28125 1.503906 -4.203125 1.515625 -4.109375 C 1.671875 -4.316406 1.8125 -4.507812 1.9375 -4.6875 C 2.070312 -4.863281 2.21875 -5.023438 2.375 -5.171875 C 2.539062 -5.316406 2.710938 -5.453125 2.890625 -5.578125 C 3.078125 -5.710938 3.273438 -5.816406 3.484375 -5.890625 C 3.828125 -6.003906 4.101562 -6 4.3125 -5.875 C 4.53125 -5.757812 4.703125 -5.53125 4.828125 -5.1875 C 4.878906 -5.070312 4.921875 -4.953125 4.953125 -4.828125 C 4.984375 -4.710938 5.019531 -4.582031 5.0625 -4.4375 C 5.125 -4.519531 5.179688 -4.597656 5.234375 -4.671875 C 5.285156 -4.742188 5.34375 -4.800781 5.40625 -4.84375 C 5.625 -5.019531 5.84375 -5.195312 6.0625 -5.375 C 6.289062 -5.550781 6.535156 -5.703125 6.796875 -5.828125 C 7.171875 -6.003906 7.488281 -6.023438 7.75 -5.890625 C 8.019531 -5.753906 8.21875 -5.484375 8.34375 -5.078125 C 8.394531 -4.898438 8.4375 -4.722656 8.46875 -4.546875 C 8.5 -4.367188 8.519531 -4.191406 8.53125 -4.015625 Z M 8.53125 -4.015625 "/></g></g></g><g fill="#2db5a3" fill-opacity="1"><g transform="translate(256.985025, 188.523064)"><g><path d="M 6.703125 -1.53125 C 6.710938 -1.394531 6.734375 -1.253906 6.765625 -1.109375 C 6.796875 -0.972656 6.800781 -0.84375 6.78125 -0.71875 C 6.769531 -0.601562 6.722656 -0.492188 6.640625 -0.390625 C 6.566406 -0.285156 6.488281 -0.210938 6.40625 -0.171875 C 6.332031 -0.148438 6.226562 -0.164062 6.09375 -0.21875 C 5.957031 -0.269531 5.867188 -0.335938 5.828125 -0.421875 C 5.703125 -0.691406 5.585938 -0.96875 5.484375 -1.25 C 5.378906 -1.53125 5.273438 -1.8125 5.171875 -2.09375 C 5.148438 -2.132812 5.132812 -2.179688 5.125 -2.234375 C 5.113281 -2.296875 5.101562 -2.363281 5.09375 -2.4375 C 4.957031 -2.289062 4.835938 -2.144531 4.734375 -2 C 4.628906 -1.863281 4.515625 -1.742188 4.390625 -1.640625 C 4.234375 -1.492188 4.070312 -1.351562 3.90625 -1.21875 C 3.75 -1.082031 3.582031 -0.960938 3.40625 -0.859375 C 2.863281 -0.585938 2.34375 -0.539062 1.84375 -0.71875 C 1.351562 -0.90625 0.988281 -1.28125 0.75 -1.84375 C 0.601562 -2.195312 0.535156 -2.578125 0.546875 -2.984375 C 0.566406 -3.398438 0.660156 -3.800781 0.828125 -4.1875 C 1.003906 -4.570312 1.242188 -4.90625 1.546875 -5.1875 C 1.691406 -5.320312 1.84375 -5.445312 2 -5.5625 C 2.15625 -5.675781 2.320312 -5.785156 2.5 -5.890625 C 2.800781 -6.078125 3.066406 -6.207031 3.296875 -6.28125 C 3.535156 -6.351562 3.773438 -6.375 4.015625 -6.34375 C 4.253906 -6.3125 4.523438 -6.242188 4.828125 -6.140625 C 4.972656 -6.171875 5.113281 -6.207031 5.25 -6.25 C 5.394531 -6.289062 5.53125 -6.300781 5.65625 -6.28125 C 5.832031 -6.238281 5.941406 -6.140625 5.984375 -5.984375 C 6.035156 -5.828125 6.078125 -5.671875 6.109375 -5.515625 C 6.191406 -4.847656 6.285156 -4.179688 6.390625 -3.515625 C 6.492188 -2.859375 6.597656 -2.195312 6.703125 -1.53125 Z M 4.703125 -4.359375 C 4.796875 -4.660156 4.765625 -4.898438 4.609375 -5.078125 C 4.460938 -5.253906 4.222656 -5.328125 3.890625 -5.296875 C 3.648438 -5.253906 3.40625 -5.15625 3.15625 -5 C 2.90625 -4.851562 2.675781 -4.660156 2.46875 -4.421875 C 2.257812 -4.179688 2.085938 -3.921875 1.953125 -3.640625 C 1.828125 -3.359375 1.757812 -3.085938 1.75 -2.828125 C 1.769531 -2.679688 1.804688 -2.515625 1.859375 -2.328125 C 1.910156 -2.140625 2.03125 -2 2.21875 -1.90625 C 2.414062 -1.789062 2.597656 -1.773438 2.765625 -1.859375 C 2.941406 -1.953125 3.097656 -2.054688 3.234375 -2.171875 C 3.585938 -2.460938 3.878906 -2.789062 4.109375 -3.15625 C 4.347656 -3.53125 4.546875 -3.929688 4.703125 -4.359375 Z M 4.703125 -4.359375 "/></g></g></g><g fill="#2db5a3" fill-opacity="1"><g transform="translate(265.732986, 188.523064)"><g><path d="M 5.125 -1.59375 C 5.1875 -1.550781 5.238281 -1.484375 5.28125 -1.390625 C 5.320312 -1.304688 5.34375 -1.226562 5.34375 -1.15625 C 5.332031 -0.945312 5.265625 -0.757812 5.140625 -0.59375 C 5.023438 -0.425781 4.875 -0.300781 4.6875 -0.21875 C 4.175781 0.03125 3.675781 0.132812 3.1875 0.09375 C 2.695312 0.0625 2.226562 -0.0976562 1.78125 -0.390625 C 1.34375 -0.671875 1.023438 -1.039062 0.828125 -1.5 C 0.628906 -1.96875 0.535156 -2.570312 0.546875 -3.3125 C 0.609375 -3.519531 0.6875 -3.804688 0.78125 -4.171875 C 0.882812 -4.535156 1.015625 -4.910156 1.171875 -5.296875 C 1.410156 -5.859375 1.769531 -6.242188 2.25 -6.453125 C 2.726562 -6.671875 3.265625 -6.695312 3.859375 -6.53125 C 3.929688 -6.507812 4.003906 -6.484375 4.078125 -6.453125 C 4.160156 -6.421875 4.226562 -6.375 4.28125 -6.3125 C 4.382812 -6.207031 4.421875 -6.082031 4.390625 -5.9375 C 4.378906 -5.90625 4.335938 -5.867188 4.265625 -5.828125 C 4.203125 -5.796875 4.144531 -5.773438 4.09375 -5.765625 C 3.96875 -5.742188 3.835938 -5.726562 3.703125 -5.71875 C 3.578125 -5.71875 3.445312 -5.71875 3.3125 -5.71875 C 3.019531 -5.71875 2.78125 -5.644531 2.59375 -5.5 C 2.40625 -5.351562 2.253906 -5.15625 2.140625 -4.90625 C 1.785156 -4.1875 1.625 -3.414062 1.65625 -2.59375 C 1.675781 -2.269531 1.773438 -1.988281 1.953125 -1.75 C 2.140625 -1.519531 2.375 -1.34375 2.65625 -1.21875 C 2.945312 -1.101562 3.25 -1.054688 3.5625 -1.078125 C 3.882812 -1.109375 4.195312 -1.21875 4.5 -1.40625 C 4.53125 -1.425781 4.5625 -1.453125 4.59375 -1.484375 C 4.625 -1.515625 4.660156 -1.535156 4.703125 -1.546875 C 4.773438 -1.566406 4.851562 -1.585938 4.9375 -1.609375 C 5.019531 -1.628906 5.082031 -1.625 5.125 -1.59375 Z M 5.125 -1.59375 "/></g></g></g><g fill="#2db5a3" fill-opacity="1"><g transform="translate(273.022946, 188.523064)"><g><path d="M 1.296875 -5.5625 C 1.503906 -5.539062 1.625 -5.457031 1.65625 -5.3125 C 1.6875 -5.164062 1.703125 -5.015625 1.703125 -4.859375 C 1.703125 -4.554688 1.703125 -4.25 1.703125 -3.9375 C 1.703125 -3.625 1.703125 -3.3125 1.703125 -3 C 1.703125 -3 1.695312 -3 1.6875 -3 C 1.6875 -2.71875 1.6875 -2.4375 1.6875 -2.15625 C 1.695312 -1.875 1.695312 -1.59375 1.6875 -1.3125 C 1.6875 -1.21875 1.6875 -1.117188 1.6875 -1.015625 C 1.6875 -0.910156 1.664062 -0.820312 1.625 -0.75 C 1.5625 -0.664062 1.476562 -0.578125 1.375 -0.484375 C 1.28125 -0.390625 1.191406 -0.34375 1.109375 -0.34375 C 1.023438 -0.34375 0.9375 -0.390625 0.84375 -0.484375 C 0.757812 -0.585938 0.679688 -0.679688 0.609375 -0.765625 C 0.578125 -0.804688 0.554688 -0.859375 0.546875 -0.921875 C 0.546875 -0.984375 0.546875 -1.046875 0.546875 -1.109375 C 0.585938 -1.742188 0.625 -2.378906 0.65625 -3.015625 C 0.695312 -3.660156 0.738281 -4.304688 0.78125 -4.953125 C 0.789062 -5.109375 0.828125 -5.253906 0.890625 -5.390625 C 0.953125 -5.523438 1.085938 -5.582031 1.296875 -5.5625 Z M 1.421875 -7.96875 C 1.578125 -7.957031 1.707031 -7.890625 1.8125 -7.765625 C 1.914062 -7.640625 1.960938 -7.484375 1.953125 -7.296875 C 1.929688 -6.941406 1.695312 -6.773438 1.25 -6.796875 C 1.113281 -6.796875 0.988281 -6.820312 0.875 -6.875 C 0.757812 -6.9375 0.707031 -7.070312 0.71875 -7.28125 C 0.71875 -7.457031 0.789062 -7.617188 0.9375 -7.765625 C 1.082031 -7.910156 1.242188 -7.976562 1.421875 -7.96875 Z M 1.421875 -7.96875 "/></g></g></g><g fill="#2db5a3" fill-opacity="1"><g transform="translate(276.93793, 188.523064)"><g><path d="M 1.84375 -3.171875 C 1.84375 -3.171875 1.820312 -3.15625 1.78125 -3.125 C 1.726562 -2.726562 1.785156 -2.375 1.953125 -2.0625 C 2.128906 -1.757812 2.378906 -1.519531 2.703125 -1.34375 C 3.035156 -1.175781 3.410156 -1.113281 3.828125 -1.15625 C 4.015625 -1.1875 4.195312 -1.21875 4.375 -1.25 C 4.5625 -1.28125 4.75 -1.289062 4.9375 -1.28125 C 5.039062 -1.269531 5.15625 -1.226562 5.28125 -1.15625 C 5.40625 -1.09375 5.476562 -1.023438 5.5 -0.953125 C 5.507812 -0.878906 5.476562 -0.78125 5.40625 -0.65625 C 5.34375 -0.539062 5.269531 -0.460938 5.1875 -0.421875 C 4.675781 -0.160156 4.160156 -0.0195312 3.640625 0 C 3.128906 0.0195312 2.617188 -0.0976562 2.109375 -0.359375 C 1.609375 -0.617188 1.226562 -0.953125 0.96875 -1.359375 C 0.707031 -1.765625 0.566406 -2.234375 0.546875 -2.765625 C 0.515625 -3.929688 0.878906 -5 1.640625 -5.96875 C 1.972656 -6.382812 2.363281 -6.644531 2.8125 -6.75 C 3.269531 -6.863281 3.75 -6.8125 4.25 -6.59375 C 4.738281 -6.375 5.097656 -6.039062 5.328125 -5.59375 C 5.554688 -5.144531 5.613281 -4.679688 5.5 -4.203125 C 5.34375 -3.566406 4.816406 -3.238281 3.921875 -3.21875 C 3.578125 -3.207031 3.226562 -3.195312 2.875 -3.1875 C 2.53125 -3.1875 2.1875 -3.179688 1.84375 -3.171875 Z M 2.703125 -5.546875 C 2.484375 -5.347656 2.316406 -5.117188 2.203125 -4.859375 C 2.085938 -4.609375 1.984375 -4.34375 1.890625 -4.0625 C 2.253906 -4.070312 2.609375 -4.082031 2.953125 -4.09375 C 3.304688 -4.113281 3.65625 -4.132812 4 -4.15625 C 4.082031 -4.164062 4.171875 -4.195312 4.265625 -4.25 C 4.367188 -4.300781 4.4375 -4.363281 4.46875 -4.4375 C 4.550781 -4.59375 4.539062 -4.789062 4.4375 -5.03125 C 4.332031 -5.269531 4.191406 -5.441406 4.015625 -5.546875 C 3.773438 -5.691406 3.535156 -5.765625 3.296875 -5.765625 C 3.066406 -5.773438 2.867188 -5.703125 2.703125 -5.546875 Z M 2.703125 -5.546875 "/></g></g></g><g fill="#2db5a3" fill-opacity="1"><g transform="translate(284.443897, 188.523064)"><g><path d="M 1.25 -1.375 C 1.394531 -1.351562 1.53125 -1.316406 1.65625 -1.265625 C 1.789062 -1.222656 1.851562 -1.097656 1.84375 -0.890625 C 1.84375 -0.691406 1.757812 -0.503906 1.59375 -0.328125 C 1.425781 -0.160156 1.257812 -0.0820312 1.09375 -0.09375 C 0.925781 -0.101562 0.789062 -0.164062 0.6875 -0.28125 C 0.59375 -0.394531 0.546875 -0.535156 0.546875 -0.703125 C 0.578125 -1.191406 0.8125 -1.414062 1.25 -1.375 Z M 1.25 -1.375 "/></g></g></g></svg>